#N canvas 1092 273 564 300 12;
#X obj 41 188 spigot;
#X obj 207 116 tgl 15 0 empty empty empty 17 7 0 10 -262144 -1 -1 0
1;
#X obj 37 98 route 0 1 2 3 4 5 6 7;
#X obj 94 188 spigot;
#X obj 236 116 tgl 15 0 empty empty empty 17 7 0 10 -262144 -1 -1 0
1;
#X obj 147 188 spigot;
#X obj 266 116 tgl 15 0 empty empty empty 17 7 0 10 -262144 -1 -1 0
1;
#X obj 200 188 spigot;
#X obj 298 116 tgl 15 0 empty empty empty 17 7 0 10 -262144 -1 -1 0
1;
#X obj 253 188 spigot;
#X obj 330 116 tgl 15 0 empty empty empty 17 7 0 10 -262144 -1 -1 0
1;
#X obj 306 188 spigot;
#X obj 362 116 tgl 15 0 empty empty empty 17 7 0 10 -262144 -1 -1 0
1;
#X obj 359 188 spigot;
#X obj 395 116 tgl 15 0 empty empty empty 17 7 0 10 -262144 -1 -1 0
1;
#X obj 412 188 spigot;
#X obj 428 116 tgl 15 0 empty empty empty 17 7 0 10 -262144 -1 -1 1
1;
#X obj 41 232 bng 15 250 50 0 empty empty empty 17 7 0 10 -262144 -1
-1;
#X obj 94 232 bng 15 250 50 0 empty empty empty 17 7 0 10 -262144 -1
-1;
#X obj 147 232 bng 15 250 50 0 empty empty empty 17 7 0 10 -262144
-1 -1;
#X obj 200 232 bng 15 250 50 0 empty empty empty 17 7 0 10 -262144
-1 -1;
#X obj 253 232 bng 15 250 50 0 empty empty empty 17 7 0 10 -262144
-1 -1;
#X obj 306 232 bng 15 250 50 0 empty empty empty 17 7 0 10 -262144
-1 -1;
#X obj 359 232 bng 15 250 50 0 empty empty empty 17 7 0 10 -262144
-1 -1;
#X obj 412 232 bng 15 250 50 0 empty empty empty 17 7 0 10 -262144
-1 -1;
#X floatatom 238 272 5 0 0 0 - - -;
#X obj 238 312 outlet;
#X obj 37 13 inlet;
#X connect 0 0 17 0;
#X connect 0 0 25 0;
#X connect 1 0 0 1;
#X connect 2 0 0 0;
#X connect 2 1 3 0;
#X connect 2 2 5 0;
#X connect 2 3 7 0;
#X connect 2 4 9 0;
#X connect 2 5 11 0;
#X connect 2 6 13 0;
#X connect 2 7 15 0;
#X connect 3 0 18 0;
#X connect 3 0 25 0;
#X connect 4 0 3 1;
#X connect 5 0 19 0;
#X connect 5 0 25 0;
#X connect 6 0 5 1;
#X connect 7 0 20 0;
#X connect 7 0 25 0;
#X connect 8 0 7 1;
#X connect 9 0 21 0;
#X connect 9 0 25 0;
#X connect 10 0 9 1;
#X connect 11 0 22 0;
#X connect 11 0 25 0;
#X connect 12 0 11 1;
#X connect 13 0 23 0;
#X connect 13 0 25 0;
#X connect 14 0 13 1;
#X connect 15 0 24 0;
#X connect 15 0 25 0;
#X connect 16 0 15 1;
#X connect 25 0 26 0;
#X connect 27 0 2 0;
#X coords 0 -1 1 1 250 40 1 200 100;
