#N canvas 0 64 1366 679 12;
#X obj 375 -79 vsl 15 128 0 127 0 0 empty empty empty 0 -9 0 10 #fcfcfc
#000000 #000000 0 1;
#X floatatom 375 116 5 0 0 0 - - -, f 5;
#X obj 374 -103 bng 15 250 50 0 empty empty empty 17 7 0 10 #fcfcfc
#000000 #000000;
#X obj 425 -103 bng 15 250 50 0 empty empty empty 17 7 0 10 #fcfcfc
#000000 #000000;
#X obj 475 -103 bng 15 250 50 0 empty empty empty 17 7 0 10 #fcfcfc
#000000 #000000;
#X obj 525 -103 bng 15 250 50 0 empty empty empty 17 7 0 10 #fcfcfc
#000000 #000000;
#X obj 575 -103 bng 15 250 50 0 empty empty empty 17 7 0 10 #fcfcfc
#000000 #000000;
#X obj 621 -103 bng 15 250 50 0 empty empty empty 17 7 0 10 #fcfcfc
#000000 #000000;
#X obj 670 -103 bng 15 250 50 0 empty empty empty 17 7 0 10 #fcfcfc
#000000 #000000;
#X obj 716 -103 bng 15 250 50 0 empty empty empty 17 7 0 10 #fcfcfc
#000000 #000000;
#X obj 358 -158 select 0 1 2 3 4 5 6 7;
#X obj 357 201 int;
#X obj 425 -80 vsl 15 128 0 127 0 0 empty empty empty 0 -9 0 10 #fcfcfc
#000000 #000000 0 1;
#X floatatom 425 116 5 0 0 0 - - -, f 5;
#X obj 407 201 int;
#X obj 475 -81 vsl 15 128 0 127 0 0 empty empty empty 0 -9 0 10 #fcfcfc
#000000 #000000 0 1;
#X floatatom 475 117 5 0 0 0 - - -, f 5;
#X obj 457 202 int;
#X obj 526 -81 vsl 15 128 0 127 0 0 empty empty empty 0 -9 0 10 #fcfcfc
#000000 #000000 0 1;
#X floatatom 526 117 5 0 0 0 - - -, f 5;
#X obj 508 202 int;
#X obj 575 -81 vsl 15 128 0 127 0 0 empty empty empty 0 -9 0 10 #fcfcfc
#000000 #000000 0 1;
#X floatatom 575 117 5 0 0 0 - - -, f 5;
#X obj 557 202 int;
#X obj 621 -81 vsl 15 128 0 127 0 0 empty empty empty 0 -9 0 10 #fcfcfc
#000000 #000000 0 1;
#X floatatom 621 117 5 0 0 0 - - -, f 5;
#X obj 603 202 int;
#X obj 670 -81 vsl 15 128 0 127 0 0 empty empty empty 0 -9 0 10 #fcfcfc
#000000 #000000 0 1;
#X floatatom 670 117 5 0 0 0 - - -, f 5;
#X obj 652 202 int;
#X obj 717 -81 vsl 15 128 0 127 0 0 empty empty empty 0 -9 0 10 #fcfcfc
#000000 #000000 0 1;
#X floatatom 717 117 5 0 0 0 - - -, f 5;
#X obj 699 202 int;
#X obj 448 341 +;
#X obj 357 -273 counter 8;
#X obj 356 -309 inlet;
#X text 356 -339 clock in;
#X floatatom 357 -190 5 0 0 0 - - -, f 5;
#X obj 448 370 outlet;
#X obj 782 151 spigot;
#X obj 376 68 tgl 15 1 empty empty empty 17 7 0 10 #fcfcfc #000000
#000000 1 1;
#X obj 846 152 spigot;
#X obj 426 68 tgl 15 1 empty empty empty 17 7 0 10 #fcfcfc #000000
#000000 1 1;
#X obj 910 151 spigot;
#X obj 476 68 tgl 15 1 empty empty empty 17 7 0 10 #fcfcfc #000000
#000000 1 1;
#X obj 974 150 spigot;
#X obj 527 67 tgl 15 1 empty empty empty 17 7 0 10 #fcfcfc #000000
#000000 1 1;
#X obj 1038 152 spigot;
#X obj 576 67 tgl 15 1 empty empty empty 17 7 0 10 #fcfcfc #000000
#000000 1 1;
#X obj 1102 151 spigot;
#X obj 622 66 tgl 15 1 empty empty empty 17 7 0 10 #fcfcfc #000000
#000000 1 1;
#X obj 1166 151 spigot;
#X obj 670 66 tgl 15 1 empty empty empty 17 7 0 10 #fcfcfc #000000
#000000 1 1;
#X obj 1230 150 spigot;
#X obj 717 65 tgl 15 1 empty empty empty 17 7 0 10 #fcfcfc #000000
#000000 1 1;
#X obj 880 -250 8pitch;
#X obj 440 -310 inlet;
#X text 440 -340 divsion in;
#X obj 357 -230 +;
#X obj 540 -310 inlet;
#X text 540 -340 comment;
#X connect 0 0 1 0;
#X connect 1 0 11 1;
#X connect 10 0 2 0;
#X connect 10 0 39 0;
#X connect 10 1 3 0;
#X connect 10 1 41 0;
#X connect 10 2 4 0;
#X connect 10 2 43 0;
#X connect 10 3 5 0;
#X connect 10 3 45 0;
#X connect 10 4 6 0;
#X connect 10 4 47 0;
#X connect 10 5 7 0;
#X connect 10 5 49 0;
#X connect 10 6 8 0;
#X connect 10 6 51 0;
#X connect 10 7 9 0;
#X connect 10 7 53 0;
#X connect 11 0 33 0;
#X connect 12 0 13 0;
#X connect 13 0 14 1;
#X connect 14 0 33 0;
#X connect 15 0 16 0;
#X connect 16 0 17 1;
#X connect 17 0 33 0;
#X connect 18 0 19 0;
#X connect 19 0 20 1;
#X connect 20 0 33 0;
#X connect 21 0 22 0;
#X connect 22 0 23 1;
#X connect 23 0 33 0;
#X connect 24 0 25 0;
#X connect 25 0 26 1;
#X connect 26 0 33 0;
#X connect 27 0 28 0;
#X connect 28 0 29 1;
#X connect 29 0 33 0;
#X connect 30 0 31 0;
#X connect 31 0 32 1;
#X connect 32 0 33 0;
#X connect 33 0 38 0;
#X connect 34 0 58 0;
#X connect 35 0 34 0;
#X connect 37 0 10 0;
#X connect 39 0 11 0;
#X connect 40 0 39 1;
#X connect 41 0 14 0;
#X connect 42 0 41 1;
#X connect 43 0 17 0;
#X connect 44 0 43 1;
#X connect 45 0 20 0;
#X connect 46 0 45 1;
#X connect 47 0 23 0;
#X connect 48 0 47 1;
#X connect 49 0 26 0;
#X connect 50 0 49 1;
#X connect 51 0 29 0;
#X connect 52 0 51 1;
#X connect 53 0 32 0;
#X connect 54 0 53 1;
#X connect 56 0 34 2;
#X connect 58 0 37 0;
#X coords 0 -1 1 1 374 219 1 366 -127;
