#N canvas 0 64 1366 679 12;
#X obj 569 550 hradio 15 1 0 8 empty empty empty 0 -8 0 10 #fcfcfc
#000000 #000000 0;
#X obj 577 577 + 1;
#X obj 472 504 inlet;
#X obj 495 652 select;
#X obj 495 761 outlet;
#X obj 233 314 vradio 15 1 0 8 empty empty empty 0 -8 0 10 #fcfcfc
#000000 #000000 2;
#X obj 262 314 vradio 15 1 0 8 empty empty empty 0 -8 0 10 #fcfcfc
#000000 #000000 0;
#X obj 292 314 vradio 15 1 0 8 empty empty empty 0 -8 0 10 #fcfcfc
#000000 #000000 2;
#X obj 322 314 vradio 15 1 0 8 empty empty empty 0 -8 0 10 #fcfcfc
#000000 #000000 0;
#X obj 352 314 vradio 15 1 0 8 empty empty empty 0 -8 0 10 #fcfcfc
#000000 #000000 1;
#X obj 382 314 vradio 15 1 0 8 empty empty empty 0 -8 0 10 #fcfcfc
#000000 #000000 0;
#X obj 412 314 vradio 15 1 0 8 empty empty empty 0 -8 0 10 #fcfcfc
#000000 #000000 0;
#X obj 442 314 vradio 15 1 0 8 empty empty empty 0 -8 0 10 #fcfcfc
#000000 #000000 0;
#X obj 215 447 int;
#X obj 244 447 int;
#X obj 274 448 int;
#X obj 304 448 int;
#X obj 334 448 int;
#X obj 364 448 int;
#X obj 394 449 int;
#X obj 424 449 int;
#X obj 233 294 tgl 15 0 empty empty empty 17 7 0 10 #fcfcfc #000000
#000000 1 1;
#X obj 262 294 tgl 15 0 empty empty empty 17 7 0 10 #fcfcfc #000000
#000000 0 1;
#X obj 292 294 tgl 15 0 empty empty empty 17 7 0 10 #fcfcfc #000000
#000000 1 1;
#X obj 322 294 tgl 15 0 empty empty empty 17 7 0 10 #fcfcfc #000000
#000000 0 1;
#X obj 352 294 tgl 15 0 empty empty empty 17 7 0 10 #fcfcfc #000000
#000000 1 1;
#X obj 382 294 tgl 15 0 empty empty empty 17 7 0 10 #fcfcfc #000000
#000000 0 1;
#X obj 412 294 tgl 15 0 empty empty empty 17 7 0 10 #fcfcfc #000000
#000000 0 1;
#X obj 442 294 tgl 15 0 empty empty empty 17 7 0 10 #fcfcfc #000000
#000000 0 1;
#X floatatom 451 651 5 0 0 0 - - -, f 5;
#X obj 495 679 bng 15 250 50 0 empty empty empty 17 7 0 10 #fcfcfc
#000000 #000000;
#X obj 228 221 select 0 1 2 3 4 5 6 7;
#X floatatom 294 164 5 0 0 0 - - -, f 5;
#X obj 569 523 r \$0-delay;
#X obj 212 501 s \$0-delay;
#X obj 495 705 counter 8;
#X obj 228 135 r \$0-count;
#X obj 579 734 s \$0-count;
#X obj 472 603 counter 1;
#X obj 490 317 int;
#X obj 522 317 int;
#X obj 554 317 int;
#X obj 588 317 int;
#X obj 621 317 int;
#X obj 653 317 int;
#X obj 686 317 int;
#X obj 720 317 int;
#X floatatom 595 365 5 0 0 0 - - -, f 5;
#X obj 556 421 spigot;
#X obj 485 537 s \$0-clock;
#X obj 504 388 r \$0-clock;
#X obj 773 384 select 1;
#X obj 773 422 outlet;
#X text 772 362 bang when there is a repeat;
#X obj 493 123 route 0 1 2 3 4 5 6 7;
#X obj 493 81 inlet;
#X obj 492 164 % 8;
#X obj 519 164 % 8;
#X obj 546 164 % 8;
#X obj 573 164 % 8;
#X obj 600 164 % 8;
#X obj 627 164 % 8;
#X obj 654 164 % 8;
#X obj 681 164 % 8;
#X floatatom 702 204 5 0 0 0 - - -, f 5;
#X obj 120 110 inlet;
#X connect 0 0 1 0;
#X connect 0 0 3 1;
#X connect 1 0 38 1;
#X connect 2 0 38 0;
#X connect 2 0 49 0;
#X connect 3 0 30 0;
#X connect 5 0 13 1;
#X connect 6 0 14 1;
#X connect 7 0 15 1;
#X connect 8 0 16 1;
#X connect 9 0 17 1;
#X connect 10 0 18 1;
#X connect 11 0 19 1;
#X connect 12 0 20 1;
#X connect 13 0 34 0;
#X connect 14 0 34 0;
#X connect 15 0 34 0;
#X connect 16 0 34 0;
#X connect 17 0 34 0;
#X connect 18 0 34 0;
#X connect 19 0 34 0;
#X connect 20 0 34 0;
#X connect 21 0 39 1;
#X connect 22 0 40 1;
#X connect 23 0 41 1;
#X connect 24 0 42 1;
#X connect 25 0 43 1;
#X connect 26 0 44 1;
#X connect 27 0 45 1;
#X connect 28 0 46 1;
#X connect 30 0 35 0;
#X connect 31 0 13 0;
#X connect 31 0 39 0;
#X connect 31 1 14 0;
#X connect 31 1 40 0;
#X connect 31 2 15 0;
#X connect 31 2 41 0;
#X connect 31 3 16 0;
#X connect 31 3 42 0;
#X connect 31 4 17 0;
#X connect 31 4 43 0;
#X connect 31 5 18 0;
#X connect 31 5 44 0;
#X connect 31 6 19 0;
#X connect 31 6 45 0;
#X connect 31 7 20 0;
#X connect 31 7 46 0;
#X connect 32 0 31 0;
#X connect 33 0 0 0;
#X connect 35 0 4 0;
#X connect 35 0 37 0;
#X connect 36 0 32 0;
#X connect 36 0 31 0;
#X connect 38 0 3 0;
#X connect 38 0 29 0;
#X connect 39 0 47 0;
#X connect 40 0 47 0;
#X connect 41 0 47 0;
#X connect 42 0 47 0;
#X connect 43 0 47 0;
#X connect 44 0 47 0;
#X connect 45 0 47 0;
#X connect 46 0 47 0;
#X connect 47 0 48 1;
#X connect 47 0 51 0;
#X connect 48 0 35 2;
#X connect 50 0 48 0;
#X connect 51 0 52 0;
#X connect 54 0 56 0;
#X connect 54 1 57 0;
#X connect 54 2 58 0;
#X connect 54 3 59 0;
#X connect 54 4 60 0;
#X connect 54 5 61 0;
#X connect 54 6 62 0;
#X connect 54 7 63 0;
#X connect 55 0 54 0;
#X connect 56 0 5 0;
#X connect 57 0 6 0;
#X connect 58 0 7 0;
#X connect 59 0 8 0;
#X connect 60 0 9 0;
#X connect 61 0 10 0;
#X connect 62 0 11 0;
#X connect 63 0 12 0;
#X connect 63 0 64 0;
#X connect 65 0 32 0;
#X coords 0 -1 1 1 250 180 1 220 260;
