#N canvas 0 64 1366 679 12;
#X obj 957 178 tgl 30 0 empty empty empty 17 7 0 10 #fcfcfc #000000
#000000 0 1;
#X floatatom 957 235 5 0 0 0 - - -, f 5;
#X obj 874 178 tgl 30 0 empty empty empty 17 7 0 10 #fcfcfc #000000
#000000 0 1;
#X floatatom 874 235 5 0 0 0 - - -, f 5;
#X obj 874 268 * 2;
#X obj 874 301 pow 1;
#X obj 874 379 +;
#X obj 902 339 t b f;
#X floatatom 380 453 5 0 0 0 - - -, f 5;
#X obj 792 177 tgl 30 0 empty empty empty 17 7 0 10 #fcfcfc #000000
#000000 0 1;
#X floatatom 792 234 5 0 0 0 - - -, f 5;
#X obj 792 267 * 2;
#X obj 792 378 +;
#X obj 820 338 t b f;
#X obj 792 300 pow 2;
#X obj 710 177 tgl 30 0 empty empty empty 17 7 0 10 #fcfcfc #000000
#000000 0 1;
#X floatatom 710 234 5 0 0 0 - - -, f 5;
#X obj 710 267 * 2;
#X obj 710 378 +;
#X obj 738 338 t b f;
#X obj 710 300 pow 3;
#X obj 628 177 tgl 30 0 empty empty empty 17 7 0 10 #fcfcfc #000000
#000000 0 1;
#X floatatom 628 234 5 0 0 0 - - -, f 5;
#X obj 628 267 * 2;
#X obj 628 378 +;
#X obj 656 338 t b f;
#X obj 546 177 tgl 30 0 empty empty empty 17 7 0 10 #fcfcfc #000000
#000000 0 1;
#X floatatom 546 234 5 0 0 0 - - -, f 5;
#X obj 546 267 * 2;
#X obj 546 378 +;
#X obj 574 338 t b f;
#X obj 464 177 tgl 30 0 empty empty empty 17 7 0 10 #fcfcfc #000000
#000000 0 1;
#X floatatom 464 234 5 0 0 0 - - -, f 5;
#X obj 464 267 * 2;
#X obj 464 378 +;
#X obj 492 338 t b f;
#X obj 380 177 tgl 30 0 empty empty empty 17 7 0 10 #fcfcfc #000000
#000000 0 1;
#X floatatom 380 234 5 0 0 0 - - -, f 5;
#X obj 380 267 * 2;
#X obj 380 378 +;
#X obj 408 338 t b f;
#X obj 628 300 pow 4;
#X obj 546 300 pow 5;
#X obj 464 300 pow 6;
#X obj 380 300 pow 7;
#X obj 170 60 inlet;
#X text 170 30 binary in;
#X obj 170 97 unpack 0 0 0 0 0 0 0 0;
#X obj 380 490 outlet;
#X text 379 520 decimal out;
#X obj 380 100 inlet;
#X obj 464 101 inlet;
#X obj 546 100 inlet;
#X obj 628 101 inlet;
#X obj 710 100 inlet;
#X obj 792 101 inlet;
#X obj 874 100 inlet;
#X obj 957 101 inlet;
#X connect 0 0 1 0;
#X connect 1 0 7 0;
#X connect 2 0 3 0;
#X connect 3 0 4 0;
#X connect 4 0 5 0;
#X connect 5 0 6 0;
#X connect 6 0 13 0;
#X connect 7 0 6 0;
#X connect 7 1 6 1;
#X connect 8 0 48 0;
#X connect 9 0 10 0;
#X connect 10 0 11 0;
#X connect 11 0 14 0;
#X connect 12 0 19 0;
#X connect 13 0 12 0;
#X connect 13 1 12 1;
#X connect 14 0 12 0;
#X connect 15 0 16 0;
#X connect 16 0 17 0;
#X connect 17 0 20 0;
#X connect 18 0 25 0;
#X connect 19 0 18 0;
#X connect 19 1 18 1;
#X connect 20 0 18 0;
#X connect 21 0 22 0;
#X connect 22 0 23 0;
#X connect 23 0 41 0;
#X connect 24 0 30 0;
#X connect 25 0 24 0;
#X connect 25 1 24 1;
#X connect 26 0 27 0;
#X connect 27 0 28 0;
#X connect 28 0 42 0;
#X connect 29 0 35 0;
#X connect 30 0 29 0;
#X connect 30 1 29 1;
#X connect 31 0 32 0;
#X connect 32 0 33 0;
#X connect 33 0 43 0;
#X connect 34 0 40 0;
#X connect 35 0 34 0;
#X connect 35 1 34 1;
#X connect 36 0 37 0;
#X connect 37 0 38 0;
#X connect 38 0 44 0;
#X connect 39 0 8 0;
#X connect 40 0 39 0;
#X connect 40 1 39 1;
#X connect 41 0 24 0;
#X connect 42 0 29 0;
#X connect 43 0 34 0;
#X connect 44 0 39 0;
#X connect 45 0 47 0;
#X connect 47 0 36 0;
#X connect 47 1 31 0;
#X connect 47 2 26 0;
#X connect 47 3 21 0;
#X connect 47 4 15 0;
#X connect 47 5 9 0;
#X connect 47 6 2 0;
#X connect 47 7 0 0;
#X connect 50 0 36 0;
#X connect 51 0 31 0;
#X connect 52 0 26 0;
#X connect 53 0 21 0;
#X connect 54 0 15 0;
#X connect 55 0 9 0;
#X connect 56 0 2 0;
#X connect 57 0 0 0;
