#N canvas 0 64 1366 679 12;
#X obj 440 420 midiout;
#X obj 580 280 delay 1;
#X obj 650 280 delay 2;
#X obj 540 210 bng 15 250 50 0 empty empty empty 17 7 0 10 #fcfcfc
#000000 #000000;
#X msg 540 310 128;
#X msg 620 310 0;
#X obj 400 271 delay 1;
#X obj 470 271 delay 2;
#X obj 359 215 bng 15 250 50 0 empty empty empty 17 7 0 10 #fcfcfc
#000000 #000000;
#X msg 440 301 15;
#X msg 360 300 144;
#X floatatom 540 360 3 0 0 0 - - -, f 3;
#X floatatom 360 358 3 0 0 0 - - -, f 3;
#X obj 789 213 +;
#X obj 829 93 inlet;
#X obj 750 92 inlet;
#X text 750 63 channel;
#X text 829 63 port;
#X obj 789 173 t b f;
#X floatatom 750 131 5 0 0 0 - - -, f 5;
#X obj 829 119 * 17;
#X floatatom 829 144 5 0 0 0 - - -, f 5;
#X floatatom 789 371 5 0 0 0 - - -, f 5;
#X floatatom 400 300 3 0 0 0 - - -, f 3;
#X floatatom 580 310 3 0 0 0 - - -, f 3;
#X obj 455 92 inlet;
#X floatatom 455 130 5 0 0 0 - - -, f 5;
#X text 455 61 pad number;
#X obj 339 90 inlet;
#X obj 339 129 bng 15 250 50 0 empty empty empty 17 7 0 10 #fcfcfc
#000000 #000000;
#X text 321 62 pad trigger;
#X obj 354 173 delay 10;
#X obj 569 92 inlet;
#X obj 569 131 bng 15 250 50 0 empty empty empty 17 7 0 10 #fcfcfc
#000000 #000000;
#X text 569 61 pad off;
#X connect 1 0 24 0;
#X connect 2 0 5 0;
#X connect 3 0 1 0;
#X connect 3 0 2 0;
#X connect 3 0 4 0;
#X connect 4 0 11 0;
#X connect 5 0 11 0;
#X connect 6 0 23 0;
#X connect 7 0 9 0;
#X connect 8 0 6 0;
#X connect 8 0 7 0;
#X connect 8 0 10 0;
#X connect 9 0 12 0;
#X connect 10 0 12 0;
#X connect 11 0 0 0;
#X connect 12 0 0 0;
#X connect 13 0 22 0;
#X connect 14 0 20 0;
#X connect 15 0 19 0;
#X connect 18 0 13 0;
#X connect 18 1 13 1;
#X connect 19 0 13 0;
#X connect 20 0 21 0;
#X connect 21 0 18 0;
#X connect 22 0 0 1;
#X connect 23 0 12 0;
#X connect 24 0 11 0;
#X connect 25 0 26 0;
#X connect 26 0 23 0;
#X connect 26 0 24 0;
#X connect 28 0 29 0;
#X connect 29 0 31 0;
#X connect 29 0 3 0;
#X connect 31 0 8 0;
#X connect 32 0 33 0;
#X connect 33 0 3 0;
