#N canvas 170 179 1024 493 12;
#X obj 94 26 inlet;
#X text 93 8 clock in;
#X obj 94 74 int;
#X floatatom 94 166 5 0 0 0 - - -, f 5;
#X obj 144 74 + 1;
#X obj 94 350 outlet;
#X obj 320 30 inlet, f 6;
#X obj 94 120 % \$1;
#X text 319 8 division in;
#X text 210 10 repeat number;
#X obj 210 30 inlet;
#X obj 210 141 bng 15 250 50 0 empty empty empty 17 7 0 10 #fcfcfc
#000000 #000000;
#X obj 192 198 select 0;
#X text 90 380 count out;
#X text 330 380 division out;
#X obj 329 350 outlet;
#X obj 328 306 bng 15 250 50 0 empty empty empty 17 7 0 10 #fcfcfc
#000000 #000000;
#X obj 320 160 moses 0;
#X obj 328 230 spigot;
#X obj 366 200 tgl 15 0 empty empty empty 17 7 0 10 #fcfcfc #000000
#000000 0 7;
#X obj 380 30 \$1;
#X connect 0 0 2 0;
#X connect 2 0 4 0;
#X connect 2 0 7 0;
#X connect 3 0 5 0;
#X connect 3 0 12 0;
#X connect 3 0 17 0;
#X connect 4 0 2 1;
#X connect 6 0 7 1;
#X connect 7 0 3 0;
#X connect 10 0 11 0;
#X connect 11 0 3 0;
#X connect 12 0 18 0;
#X connect 16 0 15 0;
#X connect 17 1 19 0;
#X connect 18 0 16 0;
#X connect 19 0 18 1;
#X coords 0 0 1 1 100 20 0;
