#N canvas 0 64 1366 679 12;
#X floatatom 640 170 5 0 0 0 - - -, f 5;
#X obj 957 281 t f f;
#X obj 957 321 * 0.5;
#X obj 1007 321 % 2;
#X obj 957 355 int;
#X obj 1007 421 tgl 30 0 empty empty empty 17 7 0 10 #fcfcfc #000000
#000000 1 1;
#X floatatom 1007 478 5 0 0 0 - - -, f 5;
#X obj 874 321 * 0.5;
#X obj 924 321 % 2;
#X obj 874 355 int;
#X obj 924 421 tgl 30 0 empty empty empty 17 7 0 10 #fcfcfc #000000
#000000 1 1;
#X floatatom 924 478 5 0 0 0 - - -, f 5;
#X obj 874 282 t f f;
#X obj 792 320 * 0.5;
#X obj 842 320 % 2;
#X obj 792 354 int;
#X obj 842 420 tgl 30 0 empty empty empty 17 7 0 10 #fcfcfc #000000
#000000 1 1;
#X floatatom 842 477 5 0 0 0 - - -, f 5;
#X obj 792 281 t f f;
#X obj 710 320 * 0.5;
#X obj 760 320 % 2;
#X obj 710 354 int;
#X obj 760 420 tgl 30 0 empty empty empty 17 7 0 10 #fcfcfc #000000
#000000 1 1;
#X floatatom 760 477 5 0 0 0 - - -, f 5;
#X obj 710 281 t f f;
#X obj 628 320 * 0.5;
#X obj 678 320 % 2;
#X obj 628 354 int;
#X obj 678 420 tgl 30 0 empty empty empty 17 7 0 10 #fcfcfc #000000
#000000 1 1;
#X floatatom 678 477 5 0 0 0 - - -, f 5;
#X obj 628 281 t f f;
#X obj 546 320 * 0.5;
#X obj 596 320 % 2;
#X obj 546 354 int;
#X obj 596 420 tgl 30 0 empty empty empty 17 7 0 10 #fcfcfc #000000
#000000 1 1;
#X floatatom 596 477 5 0 0 0 - - -, f 5;
#X obj 546 281 t f f;
#X obj 464 320 * 0.5;
#X obj 514 320 % 2;
#X obj 464 354 int;
#X obj 514 420 tgl 30 0 empty empty empty 17 7 0 10 #fcfcfc #000000
#000000 1 1;
#X floatatom 514 477 5 0 0 0 - - -, f 5;
#X obj 464 281 t f f;
#X obj 380 320 * 0.5;
#X obj 430 320 % 2;
#X obj 380 354 int;
#X obj 430 420 tgl 30 0 empty empty empty 17 7 0 10 #fcfcfc #000000
#000000 1 1;
#X floatatom 430 477 5 0 0 0 - - -, f 5;
#X obj 380 281 t f f;
#X obj 640 50 inlet;
#X text 640 20 decimal in;
#X obj 430 540 outlet;
#X obj 514 541 outlet;
#X obj 596 540 outlet;
#X obj 678 541 outlet;
#X obj 760 540 outlet;
#X obj 842 540 outlet;
#X obj 924 539 outlet;
#X obj 1007 538 outlet;
#X obj 640 610 pack 0 0 0 0 0 0 0 0;
#X obj 280 649 outlet;
#X obj 640 650 s \$0-bin-out;
#X obj 640 679 s \$0-bin-out;
#X obj 640 708 s \$0-bin-out;
#X obj 640 679 s \$0-bin-out;
#X obj 280 610 r \$0-bin-out;
#X connect 0 0 1 0;
#X connect 1 0 2 0;
#X connect 1 1 3 0;
#X connect 2 0 4 0;
#X connect 3 0 5 0;
#X connect 4 0 12 0;
#X connect 5 0 6 0;
#X connect 6 0 58 0;
#X connect 6 0 59 7;
#X connect 7 0 9 0;
#X connect 8 0 10 0;
#X connect 9 0 18 0;
#X connect 10 0 11 0;
#X connect 11 0 57 0;
#X connect 11 0 59 6;
#X connect 12 0 7 0;
#X connect 12 1 8 0;
#X connect 13 0 15 0;
#X connect 14 0 16 0;
#X connect 15 0 24 0;
#X connect 16 0 17 0;
#X connect 17 0 56 0;
#X connect 17 0 59 5;
#X connect 18 0 13 0;
#X connect 18 1 14 0;
#X connect 19 0 21 0;
#X connect 20 0 22 0;
#X connect 21 0 30 0;
#X connect 22 0 23 0;
#X connect 23 0 55 0;
#X connect 23 0 59 4;
#X connect 24 0 19 0;
#X connect 24 1 20 0;
#X connect 25 0 27 0;
#X connect 26 0 28 0;
#X connect 27 0 36 0;
#X connect 28 0 29 0;
#X connect 29 0 54 0;
#X connect 29 0 59 3;
#X connect 30 0 25 0;
#X connect 30 1 26 0;
#X connect 31 0 33 0;
#X connect 32 0 34 0;
#X connect 33 0 42 0;
#X connect 34 0 35 0;
#X connect 35 0 53 0;
#X connect 35 0 59 2;
#X connect 36 0 31 0;
#X connect 36 1 32 0;
#X connect 37 0 39 0;
#X connect 38 0 40 0;
#X connect 39 0 48 0;
#X connect 40 0 41 0;
#X connect 41 0 52 0;
#X connect 41 0 59 1;
#X connect 42 0 37 0;
#X connect 42 1 38 0;
#X connect 43 0 45 0;
#X connect 44 0 46 0;
#X connect 46 0 47 0;
#X connect 47 0 51 0;
#X connect 47 0 59 0;
#X connect 48 0 43 0;
#X connect 48 1 44 0;
#X connect 49 0 0 0;
#X connect 59 0 61 0;
#X connect 65 0 60 0;
