#N canvas 0 119 1864 865 12;
#X obj 172 148 key;
#X floatatom 172 184 5 0 0 0 - - -;
#X obj 155 329 select 122;
#X obj 155 550 bng 30 250 50 0 empty empty empty 17 7 0 10 -262144
-1 -1;
#X obj 550 133 key;
#X obj 427 550 bng 30 250 50 0 empty empty empty 17 7 0 10 -262144
-1 -1;
#X obj 520 550 bng 30 250 50 0 empty empty empty 17 7 0 10 -262144
-1 -1;
#X obj 610 550 bng 30 250 50 0 empty empty empty 17 7 0 10 -262144
-1 -1;
#X obj 702 550 bng 30 250 50 0 empty empty empty 17 7 0 10 -262144
-1 -1;
#X obj 792 550 bng 30 250 50 0 empty empty empty 17 7 0 10 -262144
-1 -1;
#X obj 879 550 bng 30 250 50 0 empty empty empty 17 7 0 10 -262144
-1 -1;
#X obj 969 550 bng 30 250 50 0 empty empty empty 17 7 0 10 -262144
-1 -1;
#X obj 245 550 bng 30 250 50 0 empty empty empty 17 7 0 10 -262144
-1 -1;
#X obj 337 550 bng 30 250 50 0 empty empty empty 17 7 0 10 -262144
-1 -1;
#X obj 204 504 bng 30 250 50 0 empty empty empty 17 7 0 10 -262144
-1 -1;
#X obj 294 504 bng 30 250 50 0 empty empty empty 17 7 0 10 -262144
-1 -1;
#X obj 460 504 bng 30 250 50 0 empty empty empty 17 7 0 10 -262144
-1 -1;
#X obj 554 504 bng 30 250 50 0 empty empty empty 17 7 0 10 -262144
-1 -1;
#X obj 644 504 bng 30 250 50 0 empty empty empty 17 7 0 10 -262144
-1 -1;
#X obj 824 503 bng 30 250 50 0 empty empty empty 17 7 0 10 -262144
-1 -1;
#X obj 914 503 bng 30 250 50 0 empty empty empty 17 7 0 10 -262144
-1 -1;
#X obj 204 287 select 115;
#X obj 294 287 select 100;
#X obj 245 328 select 120;
#X obj 461 286 select 103;
#X obj 554 286 select 104;
#X obj 644 286 select 106;
#X obj 337 328 select 99;
#X obj 427 328 select 118;
#X obj 520 328 select 98;
#X obj 610 328 select 110;
#X obj 702 327 select 109;
#X obj 792 328 select 44;
#X obj 879 328 select 46;
#X obj 969 328 select 47;
#X obj 824 288 select 108;
#X obj 914 288 select 59;
#X text 165 588 Z;
#X text 209 554 S;
#X text 253 588 X;
#X text 298 554 D;
#X text 341 589 C;
#X text 431 592 V;
#X text 475 555 G;
#X text 527 591 B;
#X text 565 556 H;
#X text 607 593 N;
#X text 655 555 J;
#X text 708 593 M;
#X text 802 593 <;
#X text 838 554 L;
#X text 890 594 .;
#X text 927 556 \;;
#X text 972 594 /;
#X obj 1071 843 pack 0 0 0;
#X obj 869 371 key;
#X obj 1058 450 select 122;
#X obj 1058 552 bng 30 250 50 0 empty empty empty 17 7 0 10 -262144
-1 -1;
#X obj 1330 552 bng 30 250 50 0 empty empty empty 17 7 0 10 -262144
-1 -1;
#X obj 1423 552 bng 30 250 50 0 empty empty empty 17 7 0 10 -262144
-1 -1;
#X obj 1513 552 bng 30 250 50 0 empty empty empty 17 7 0 10 -262144
-1 -1;
#X obj 1605 552 bng 30 250 50 0 empty empty empty 17 7 0 10 -262144
-1 -1;
#X obj 1695 552 bng 30 250 50 0 empty empty empty 17 7 0 10 -262144
-1 -1;
#X obj 1782 552 bng 30 250 50 0 empty empty empty 17 7 0 10 -262144
-1 -1;
#X obj 1872 552 bng 30 250 50 0 empty empty empty 17 7 0 10 -262144
-1 -1;
#X obj 1148 552 bng 30 250 50 0 empty empty empty 17 7 0 10 -262144
-1 -1;
#X obj 1240 552 bng 30 250 50 0 empty empty empty 17 7 0 10 -262144
-1 -1;
#X obj 1107 506 bng 30 250 50 0 empty empty empty 17 7 0 10 -262144
-1 -1;
#X obj 1197 506 bng 30 250 50 0 empty empty empty 17 7 0 10 -262144
-1 -1;
#X obj 1363 506 bng 30 250 50 0 empty empty empty 17 7 0 10 -262144
-1 -1;
#X obj 1457 506 bng 30 250 50 0 empty empty empty 17 7 0 10 -262144
-1 -1;
#X obj 1547 506 bng 30 250 50 0 empty empty empty 17 7 0 10 -262144
-1 -1;
#X obj 1727 505 bng 30 250 50 0 empty empty empty 17 7 0 10 -262144
-1 -1;
#X obj 1817 505 bng 30 250 50 0 empty empty empty 17 7 0 10 -262144
-1 -1;
#X obj 1107 409 select 115;
#X obj 1197 409 select 100;
#X obj 1148 450 select 120;
#X obj 1364 408 select 103;
#X obj 1457 408 select 104;
#X obj 1547 408 select 106;
#X obj 1240 450 select 99;
#X obj 1330 450 select 118;
#X obj 1423 450 select 98;
#X obj 1513 450 select 110;
#X obj 1605 449 select 109;
#X obj 1695 450 select 44;
#X obj 1782 450 select 46;
#X obj 1872 450 select 47;
#X obj 1727 410 select 108;
#X obj 1817 410 select 59;
#X text 1068 590 Z;
#X text 1112 556 S;
#X text 1156 590 X;
#X text 1201 556 D;
#X text 1244 591 C;
#X text 1334 594 V;
#X text 1378 557 G;
#X text 1430 593 B;
#X text 1468 558 H;
#X text 1510 595 N;
#X text 1558 557 J;
#X text 1611 595 M;
#X text 1705 595 <;
#X text 1741 556 L;
#X text 1793 596 .;
#X text 1830 558 \;;
#X text 1875 596 /;
#X obj 1453 255 keyup;
#X obj 150 682 1;
#X obj 200 650 2;
#X obj 240 683 3;
#X obj 290 649 4;
#X obj 337 683 5;
#X obj 424 680 6;
#X obj 474 648 7;
#X obj 515 680 8;
#X obj 564 647 9;
#X obj 603 681 10;
#X obj 654 647 11;
#X obj 700 705 13;
#X obj 789 703 14;
#X obj 839 671 15;
#X obj 878 704 16;
#X obj 929 671 17;
#X obj 976 704 18;
#X obj 1063 674 1;
#X obj 1113 642 2;
#X obj 1153 675 3;
#X obj 1203 641 4;
#X obj 1250 675 5;
#X obj 1337 672 6;
#X obj 1387 640 7;
#X obj 1428 672 8;
#X obj 1477 639 9;
#X obj 1516 673 10;
#X obj 1567 639 11;
#X obj 1613 673 13;
#X obj 1702 671 14;
#X obj 1752 639 15;
#X obj 1791 672 16;
#X obj 1842 639 17;
#X obj 1889 672 18;
#X obj 1071 808 poly 3 3;
#X obj 531 843 outlet;
#X obj 1071 872 outlet;
#X obj 531 791 pack 0 127;
#X obj 1480 791 pack 0 0;
#X obj 531 750 +;
#X obj 549 704 r octave;
#X obj 1498 705 r octave;
#X obj 1480 754 +;
#X text 741 766 Notes out;
#X text 1068 783 Poly notes out;
#X obj 869 411 select 91;
#X obj 948 411 select 93;
#X obj 869 473 bng 30 250 50 0 empty empty empty 17 7 0 10 -262144
-1 -1;
#X obj 948 473 bng 30 250 50 0 empty empty empty 17 7 0 10 -262144
-1 -1;
#X obj 954 633 s countUp;
#X obj 868 633 s countDown;
#X obj 1241 -30 r countUp;
#X obj 1050 -28 r countDown;
#X obj 1146 103 int;
#X obj 1241 14 0;
#X obj 1050 15 0;
#X obj 1298 14 + 1;
#X floatatom 1241 56 5 0 0 0 - - -;
#X floatatom 1050 50 5 0 0 0 - - -;
#X obj 995 15 - 1;
#X obj 1146 142 % 7;
#X obj 1146 208 * -1;
#X obj 1146 241 * 10;
#X floatatom 1146 272 5 0 0 0 - - -;
#X obj 1146 174 moses 0;
#X text 850 479 -;
#X text 932 479 +;
#X floatatom 701 769 5 0 0 0 - - -;
#X obj 1146 301 s octave;
#X obj 1044 246 s octaveNum;
#X obj 755 427 r octaveNum;
#X floatatom 757 478 5 0 0 0 - - -;
#X obj 1219 302 outlet;
#X text 533 819 Notes out plus octave;
#X obj 701 842 outlet;
#X connect 0 0 1 0;
#X connect 2 0 3 0;
#X connect 3 0 108 0;
#X connect 4 0 2 0;
#X connect 4 0 21 0;
#X connect 4 0 22 0;
#X connect 4 0 23 0;
#X connect 4 0 24 0;
#X connect 4 0 25 0;
#X connect 4 0 26 0;
#X connect 4 0 27 0;
#X connect 4 0 28 0;
#X connect 4 0 29 0;
#X connect 4 0 30 0;
#X connect 4 0 31 0;
#X connect 4 0 32 0;
#X connect 4 0 33 0;
#X connect 4 0 34 0;
#X connect 4 0 35 0;
#X connect 4 0 36 0;
#X connect 5 0 113 0;
#X connect 6 0 115 0;
#X connect 7 0 117 0;
#X connect 8 0 119 0;
#X connect 9 0 120 0;
#X connect 10 0 122 0;
#X connect 11 0 124 0;
#X connect 12 0 110 0;
#X connect 13 0 112 0;
#X connect 14 0 109 0;
#X connect 15 0 111 0;
#X connect 16 0 114 0;
#X connect 17 0 116 0;
#X connect 18 0 118 0;
#X connect 19 0 121 0;
#X connect 20 0 123 0;
#X connect 21 0 14 0;
#X connect 22 0 15 0;
#X connect 23 0 12 0;
#X connect 24 0 16 0;
#X connect 25 0 17 0;
#X connect 26 0 18 0;
#X connect 27 0 13 0;
#X connect 28 0 5 0;
#X connect 29 0 6 0;
#X connect 30 0 7 0;
#X connect 31 0 8 0;
#X connect 32 0 9 0;
#X connect 33 0 10 0;
#X connect 34 0 11 0;
#X connect 35 0 19 0;
#X connect 36 0 20 0;
#X connect 54 0 144 0;
#X connect 55 0 153 0;
#X connect 55 0 154 0;
#X connect 56 0 57 0;
#X connect 57 0 125 0;
#X connect 58 0 130 0;
#X connect 59 0 132 0;
#X connect 60 0 134 0;
#X connect 61 0 136 0;
#X connect 62 0 137 0;
#X connect 63 0 139 0;
#X connect 64 0 141 0;
#X connect 65 0 127 0;
#X connect 66 0 129 0;
#X connect 67 0 126 0;
#X connect 68 0 128 0;
#X connect 69 0 131 0;
#X connect 70 0 133 0;
#X connect 71 0 135 0;
#X connect 72 0 138 0;
#X connect 73 0 140 0;
#X connect 74 0 67 0;
#X connect 75 0 68 0;
#X connect 76 0 65 0;
#X connect 77 0 69 0;
#X connect 78 0 70 0;
#X connect 79 0 71 0;
#X connect 80 0 66 0;
#X connect 81 0 58 0;
#X connect 82 0 59 0;
#X connect 83 0 60 0;
#X connect 84 0 61 0;
#X connect 85 0 62 0;
#X connect 86 0 63 0;
#X connect 87 0 64 0;
#X connect 88 0 72 0;
#X connect 89 0 73 0;
#X connect 107 0 56 0;
#X connect 107 0 74 0;
#X connect 107 0 75 0;
#X connect 107 0 76 0;
#X connect 107 0 77 0;
#X connect 107 0 78 0;
#X connect 107 0 79 0;
#X connect 107 0 80 0;
#X connect 107 0 81 0;
#X connect 107 0 82 0;
#X connect 107 0 83 0;
#X connect 107 0 84 0;
#X connect 107 0 85 0;
#X connect 107 0 86 0;
#X connect 107 0 87 0;
#X connect 107 0 88 0;
#X connect 107 0 89 0;
#X connect 108 0 147 0;
#X connect 109 0 147 0;
#X connect 110 0 147 0;
#X connect 111 0 147 0;
#X connect 112 0 147 0;
#X connect 113 0 147 0;
#X connect 114 0 147 0;
#X connect 115 0 147 0;
#X connect 116 0 147 0;
#X connect 117 0 147 0;
#X connect 118 0 147 0;
#X connect 119 0 147 0;
#X connect 120 0 147 0;
#X connect 121 0 147 0;
#X connect 122 0 147 0;
#X connect 123 0 147 0;
#X connect 124 0 147 0;
#X connect 125 0 150 0;
#X connect 126 0 150 0;
#X connect 127 0 150 0;
#X connect 128 0 150 0;
#X connect 129 0 150 0;
#X connect 130 0 150 0;
#X connect 131 0 150 0;
#X connect 132 0 150 0;
#X connect 133 0 150 0;
#X connect 134 0 150 0;
#X connect 135 0 150 0;
#X connect 136 0 150 0;
#X connect 137 0 150 0;
#X connect 138 0 150 0;
#X connect 139 0 150 0;
#X connect 140 0 150 0;
#X connect 141 0 150 0;
#X connect 142 0 54 0;
#X connect 142 1 54 1;
#X connect 142 2 54 2;
#X connect 145 0 143 0;
#X connect 145 0 142 0;
#X connect 146 0 143 0;
#X connect 146 0 142 0;
#X connect 147 0 145 0;
#X connect 147 0 175 0;
#X connect 148 0 147 1;
#X connect 149 0 150 1;
#X connect 150 0 146 0;
#X connect 153 0 155 0;
#X connect 154 0 156 0;
#X connect 155 0 158 0;
#X connect 156 0 157 0;
#X connect 159 0 162 0;
#X connect 160 0 163 0;
#X connect 161 0 168 0;
#X connect 162 0 164 0;
#X connect 162 0 165 0;
#X connect 163 0 166 0;
#X connect 163 0 167 0;
#X connect 164 0 162 1;
#X connect 165 0 161 0;
#X connect 165 0 163 1;
#X connect 166 0 161 0;
#X connect 166 0 162 0;
#X connect 167 0 163 1;
#X connect 168 0 172 0;
#X connect 169 0 170 0;
#X connect 169 0 177 0;
#X connect 170 0 171 0;
#X connect 171 0 176 0;
#X connect 171 0 180 0;
#X connect 172 0 169 0;
#X connect 172 1 170 0;
#X connect 172 1 177 0;
#X connect 175 0 182 0;
#X connect 178 0 179 0;
#X coords 0 -1 1 1 900 150 1 120 470;
