#N canvas 0 64 1366 679 12;
#X obj 480 630 midito;
#X obj 270 130 metro;
#X obj 270 90 tgl 15 0 empty empty empty 17 7 0 10 #fcfcfc #000000
#000000 1 1;
#X floatatom 302 90 5 0 0 0 - - -, f 5;
#X floatatom 440 520 5 0 0 0 - - -, f 5;
#X floatatom 500 520 5 0 0 0 - - -, f 5;
#X obj 270 156 bng 19 250 50 0 empty empty empty 17 7 0 10 #fcfcfc
#000000 #000000;
#X obj 270 180 s metro;
#X msg 400 520 127;
#X obj 250 360 quant-lfo;
#X floatatom 250 390 5 0 0 0 - - -, f 5;
#X obj 350 360 quant-lfo;
#X floatatom 350 390 5 0 0 0 - - -, f 5;
#X obj 460 360 quant-lfo;
#X floatatom 460 390 5 0 0 0 - - -, f 5;
#X obj 258 468 spigot;
#X obj 298 438 tgl 15 0 empty empty empty 17 7 0 10 #fcfcfc #000000
#000000 1 1;
#X obj 350 470 spigot;
#X obj 390 440 tgl 15 0 empty empty empty 17 7 0 10 #fcfcfc #000000
#000000 1 1;
#X obj 440 470 spigot;
#X obj 480 440 tgl 15 0 empty empty empty 17 7 0 10 #fcfcfc #000000
#000000 0 1;
#X obj 1100 40 notein;
#X floatatom 1100 90 5 0 0 0 - - -, f 5;
#X floatatom 1120 120 5 0 0 0 - - -, f 5;
#X obj 1100 240 route 53 55 57 59;
#X obj 280 550 t b f;
#X obj 270 580 +;
#X floatatom 460 270 5 0 0 0 - - -, f 5;
#X floatatom 490 297 5 0 0 0 - - -, f 5;
#X floatatom 520 323 5 0 0 0 - - -, f 5;
#X floatatom 350 269 5 0 0 0 - - -, f 5;
#X floatatom 380 296 5 0 0 0 - - -, f 5;
#X floatatom 410 320 5 0 0 0 - - -, f 5;
#X floatatom 250 271 5 0 0 0 - - -, f 5;
#X floatatom 280 298 5 0 0 0 - - -, f 5;
#X floatatom 310 324 5 0 0 0 - - -, f 5;
#X msg 1166 177 1;
#X msg 1120 178 0;
#X obj 1101 207 pack;
#X floatatom 1140 300 5 0 0 0 - - -, f 5;
#X floatatom 1210 210 5 0 0 0 - - -, f 5;
#X obj 1250 160 bng 15 250 50 0 empty empty empty 17 7 0 10 #fcfcfc
#000000 #000000;
#X obj 1120 150 moses 0.5;
#X obj 310 600 t b f;
#X obj 300 630 +;
#X obj 562 359 quant-lfo;
#X floatatom 562 389 5 0 0 0 - - -, f 5;
#X obj 542 469 spigot;
#X obj 582 439 tgl 15 0 empty empty empty 17 7 0 10 #fcfcfc #000000
#000000 0 1;
#X floatatom 562 269 5 0 0 0 - - -, f 5;
#X floatatom 592 296 5 0 0 0 - - -, f 5;
#X floatatom 622 322 5 0 0 0 - - -, f 5;
#X obj 380 620 t b f;
#X obj 370 650 +;
#X obj 750 640 midito;
#X msg 764 600 127;
#X floatatom 780 540 5 0 0 0 - - -, f 5;
#X floatatom 800 570 5 0 0 0 - - -, f 5;
#X connect 1 0 6 0;
#X connect 2 0 1 0;
#X connect 3 0 1 1;
#X connect 4 0 0 2;
#X connect 5 0 0 3;
#X connect 6 0 7 0;
#X connect 8 0 0 1;
#X connect 9 0 10 0;
#X connect 10 0 15 0;
#X connect 11 0 12 0;
#X connect 12 0 17 0;
#X connect 13 0 14 0;
#X connect 14 0 19 0;
#X connect 15 0 8 0;
#X connect 15 0 26 0;
#X connect 16 0 15 1;
#X connect 17 0 8 0;
#X connect 17 0 25 0;
#X connect 18 0 17 1;
#X connect 19 0 8 0;
#X connect 19 0 43 0;
#X connect 20 0 19 1;
#X connect 21 0 22 0;
#X connect 21 1 23 0;
#X connect 22 0 38 0;
#X connect 22 0 55 0;
#X connect 23 0 42 0;
#X connect 24 0 39 0;
#X connect 25 0 26 0;
#X connect 25 1 26 1;
#X connect 26 0 44 0;
#X connect 27 0 13 0;
#X connect 28 0 13 1;
#X connect 29 0 13 2;
#X connect 30 0 11 0;
#X connect 31 0 11 1;
#X connect 32 0 11 2;
#X connect 33 0 9 0;
#X connect 34 0 9 1;
#X connect 35 0 9 2;
#X connect 36 0 38 1;
#X connect 36 0 40 0;
#X connect 37 0 38 1;
#X connect 37 0 40 0;
#X connect 38 0 24 0;
#X connect 42 0 37 0;
#X connect 42 0 41 0;
#X connect 42 1 36 0;
#X connect 43 0 44 0;
#X connect 43 1 44 1;
#X connect 44 0 53 0;
#X connect 45 0 46 0;
#X connect 46 0 47 0;
#X connect 47 0 52 0;
#X connect 47 0 8 0;
#X connect 48 0 47 1;
#X connect 49 0 45 0;
#X connect 50 0 45 1;
#X connect 51 0 45 2;
#X connect 52 0 53 0;
#X connect 52 1 53 1;
#X connect 53 0 0 0;
#X connect 55 0 54 1;
#X connect 55 0 54 0;
#X connect 56 0 54 2;
#X connect 57 0 54 3;
