#N canvas -8 -8 1920 997 12;
#X obj 806 307 8plex;
#X obj 806 518 8mute;
#X obj 806 121 8syncho;
#X floatatom 1053 9 5 0 0 0 - - -;
#X obj 993 9 tgl 15 0 empty empty empty 17 7 0 10 -262144 -1 -1 1 1
;
#X obj 993 55 bng 15 250 50 0 empty empty empty 17 7 0 10 -262144 -1
-1;
#X obj 993 30 metro 200;
#X floatatom 1034 859 5 0 0 0 - - -;
#X obj 550 215 counter 8;
#X msg 967 949 127;
#X floatatom 840 921 5 0 0 0 - - -;
#X floatatom 840 945 5 0 0 0 - - -;
#X floatatom 892 803 5 0 0 0 - - -;
#X obj 840 1001 ctlout;
#X obj 942 1001 noteout;
#X obj 855 828 +;
#X floatatom 943 921 5 0 0 0 - - -;
#X msg 847 646 0;
#X msg 887 646 12;
#X msg 925 672 24;
#X msg 950 699 48;
#X msg 970 724 60;
#X msg 970 749 72;
#X obj 1086 215 smart-metro;
#X obj 1146 478 8mute;
#X msg 1286 761 127;
#X floatatom 1159 724 5 0 0 0 - - -;
#X floatatom 1178 761 5 0 0 0 - - -;
#X obj 1159 803 ctlout;
#X obj 1261 803 noteout;
#X floatatom 1262 724 5 0 0 0 - - -;
#X msg 1186 673 28;
#X floatatom 1478 646 5 0 0 0 - - -;
#X obj 1441 646 +;
#X msg 1433 478 0;
#X msg 1473 478 12;
#X msg 1514 514 24;
#X msg 1536 542 48;
#X msg 1556 578 60;
#X msg 1556 603 72;
#X msg 931 859 1;
#X msg 1250 646 17;
#X msg 1747 761 127;
#X floatatom 1620 699 5 0 0 0 - - -;
#X floatatom 1639 761 5 0 0 0 - - -;
#X obj 1620 803 ctlout;
#X obj 1722 803 noteout;
#X floatatom 1711 671 5 0 0 0 - - -;
#X msg 1647 646 28;
#X obj 1610 440 8mute;
#X msg 1711 646 18;
#X msg 1486 380 127;
#X floatatom 1359 356 5 0 0 0 - - -;
#X floatatom 1378 356 5 0 0 0 - - -;
#X obj 1359 422 ctlout;
#X obj 1461 422 noteout;
#X floatatom 1462 334 5 0 0 0 - - -;
#X msg 1386 290 28;
#X obj 1349 72 8mute;
#X msg 1450 264 19;
#X floatatom 1656 215 5 0 0 0 - - -;
#X obj 1619 240 +;
#X msg 1611 72 0;
#X msg 1651 72 12;
#X msg 1692 91 24;
#X msg 1714 121 48;
#X msg 1734 144 60;
#X msg 1734 169 72;
#X obj 469 356 8plex;
#X floatatom 535 653 5 0 0 0 - - -;
#X obj 550 240 select 0;
#X floatatom 772 699 5 0 0 0 - - -;
#X obj 735 724 +;
#X obj 550 265 counter 8;
#X floatatom 1241 542 5 0 0 0 - - -;
#X obj 1209 578 +;
#X floatatom 1391 168 5 0 0 0 - - -;
#X obj 1359 197 +;
#X obj 1107 319 spigot;
#X obj 1146 282 tgl 15 0 empty empty empty 17 7 0 10 -262144 -1 -1
1 1;
#X obj 1186 316 spigot;
#X obj 1220 288 tgl 15 0 empty empty empty 17 7 0 10 -262144 -1 -1
0 1;
#X obj 486 579 8mute;
#X floatatom 569 308 5 0 0 0 - - -;
#X obj 1208 238 bng 15 250 50 0 empty empty empty 17 7 0 10 -262144
-1 -1;
#X obj 281 371 notein;
#X floatatom 302 425 5 0 0 0 - - -;
#X floatatom 243 429 5 0 0 0 - - -;
#X obj 241 541 noteout 33;
#X connect 0 0 1 0;
#X connect 0 0 24 0;
#X connect 0 0 49 0;
#X connect 0 0 58 0;
#X connect 1 0 72 0;
#X connect 2 0 0 0;
#X connect 3 0 6 1;
#X connect 4 0 6 0;
#X connect 5 0 2 0;
#X connect 5 0 8 0;
#X connect 6 0 5 0;
#X connect 8 0 70 0;
#X connect 9 0 14 1;
#X connect 10 0 13 0;
#X connect 11 0 13 1;
#X connect 12 0 15 1;
#X connect 15 0 10 0;
#X connect 15 0 16 0;
#X connect 16 0 9 0;
#X connect 16 0 14 0;
#X connect 17 0 12 0;
#X connect 18 0 12 0;
#X connect 19 0 12 0;
#X connect 20 0 12 0;
#X connect 21 0 12 0;
#X connect 22 0 12 0;
#X connect 23 0 78 0;
#X connect 23 0 80 0;
#X connect 23 1 2 1;
#X connect 24 0 75 0;
#X connect 24 0 33 0;
#X connect 25 0 29 1;
#X connect 26 0 28 0;
#X connect 27 0 28 1;
#X connect 30 0 25 0;
#X connect 30 0 29 0;
#X connect 31 0 28 1;
#X connect 32 0 33 1;
#X connect 33 0 26 0;
#X connect 33 0 30 0;
#X connect 34 0 32 0;
#X connect 35 0 32 0;
#X connect 36 0 32 0;
#X connect 37 0 32 0;
#X connect 38 0 32 0;
#X connect 39 0 32 0;
#X connect 40 0 13 2;
#X connect 40 0 14 2;
#X connect 41 0 28 2;
#X connect 41 0 29 2;
#X connect 42 0 46 1;
#X connect 43 0 45 0;
#X connect 44 0 45 1;
#X connect 47 0 42 0;
#X connect 47 0 46 0;
#X connect 48 0 45 1;
#X connect 49 0 47 0;
#X connect 50 0 45 2;
#X connect 50 0 46 2;
#X connect 51 0 55 1;
#X connect 52 0 54 0;
#X connect 53 0 54 1;
#X connect 56 0 51 0;
#X connect 56 0 55 0;
#X connect 57 0 54 1;
#X connect 58 0 56 0;
#X connect 58 0 77 0;
#X connect 59 0 54 2;
#X connect 59 0 55 2;
#X connect 60 0 61 1;
#X connect 61 0 52 0;
#X connect 62 0 60 0;
#X connect 63 0 60 0;
#X connect 64 0 60 0;
#X connect 65 0 60 0;
#X connect 66 0 60 0;
#X connect 67 0 60 0;
#X connect 68 0 82 0;
#X connect 69 0 71 0;
#X connect 69 0 76 0;
#X connect 69 0 61 0;
#X connect 69 0 74 0;
#X connect 70 0 73 0;
#X connect 71 0 72 1;
#X connect 72 0 15 0;
#X connect 73 0 68 0;
#X connect 73 0 83 0;
#X connect 74 0 75 1;
#X connect 76 0 77 1;
#X connect 78 0 68 1;
#X connect 79 0 78 1;
#X connect 80 0 0 1;
#X connect 81 0 80 1;
#X connect 82 0 69 0;
#X connect 84 0 81 0;
#X connect 84 0 79 0;
#X connect 85 0 87 0;
#X connect 85 1 86 0;
#X connect 86 0 88 1;
#X connect 87 0 88 0;
#X coords 0 997 1 996 250 195 0;
