#N canvas 346 183 450 300 12;
#X obj 190 260 noteout;
#X floatatom 235 61 5 0 0 0 - - -, f 5;
#X floatatom 296 61 5 0 0 0 - - -, f 5;
#X obj 256 171 t b f;
#X obj 236 201 +;
#X floatatom 236 231 5 0 0 0 - - -, f 5;
#X obj 296 84 - 1, f 5;
#X obj 296 113 moses 0;
#X obj 296 141 * 16;
#X obj 235 113 moses 0;
#X obj 235 29 inlet;
#X obj 296 30 inlet;
#X obj 120 30 inlet;
#X obj 181 31 inlet;
#X connect 1 0 9 0;
#X connect 2 0 6 0;
#X connect 3 0 4 0;
#X connect 3 1 4 1;
#X connect 4 0 5 0;
#X connect 5 0 0 2;
#X connect 6 0 7 0;
#X connect 7 1 8 0;
#X connect 8 0 3 0;
#X connect 9 0 4 0;
#X connect 10 0 1 0;
#X connect 11 0 2 0;
#X connect 12 0 0 0;
#X connect 13 0 0 1;
