#N canvas -11 -11 1920 956 12;
#X obj 129 75 notein;
#X floatatom 129 102 5 0 0 0 - - -;
#X floatatom 149 129 5 0 0 0 - - -;
#X floatatom 166 157 5 0 0 0 - - -;
#X obj 129 277 noteout;
#X obj 206 210 +;
#X floatatom 238 136 5 0 0 0 - - -;
#X floatatom 206 234 5 0 0 0 - - -;
#X msg 323 104 0;
#X msg 347 131 17;
#X msg 363 157 18;
#X msg 377 183 19;
#X msg 387 209 20;
#X obj 554 97 metro 100;
#X obj 554 68 tgl 15 0 empty empty empty 17 7 0 10 -262144 -1 -1 1
1;
#X obj 553 255 counter;
#X floatatom 620 219 5 0 0 0 - - -;
#X obj 647 333 bng 15 250 50 0 empty empty empty 17 7 0 10 -262144
-1 -1;
#X obj 573 144 bng 15 250 50 0 empty empty empty 17 7 0 10 -262144
-1 -1;
#X obj 544 316 bng 15 250 50 0 empty empty empty 17 7 0 10 -262144
-1 -1;
#X obj 603 329 bng 15 250 50 0 empty empty empty 17 7 0 10 -262144
-1 -1;
#X floatatom 509 364 5 0 0 0 - - -;
#X floatatom 622 374 5 0 0 0 - - -;
#X connect 0 0 1 0;
#X connect 0 1 2 0;
#X connect 0 2 3 0;
#X connect 1 0 4 0;
#X connect 2 0 4 1;
#X connect 3 0 5 0;
#X connect 5 0 7 0;
#X connect 6 0 5 1;
#X connect 7 0 4 2;
#X connect 8 0 5 1;
#X connect 9 0 5 1;
#X connect 10 0 5 1;
#X connect 11 0 5 1;
#X connect 12 0 5 1;
#X connect 13 0 18 0;
#X connect 13 0 15 0;
#X connect 14 0 13 0;
#X connect 15 0 19 0;
#X connect 15 0 21 0;
#X connect 15 1 20 0;
#X connect 16 0 15 2;
