#N canvas 664 220 450 300 12;
#X obj 150 112 +;
#X floatatom 220 70 5 0 0 0 - - -, f 5;
#X obj 150 20 inlet;
#X obj 150 160 outlet;
#X connect 0 0 3 0;
#X connect 1 0 0 1;
#X connect 2 0 0 0;
#X coords 0 -1 1 1 100 30 1 160 65;
