#N canvas 458 213 450 460 12;
#X obj 206 62 counter;
#X obj 206 32 r metro;
#X floatatom 207 2 5 0 0 0 - - -, f 5;
#X obj 207 -30 int;
#X obj 206 89 select 0;
#X obj 167 -30 int;
#X obj 127 -30 int;
#X obj 137 0 t b f;
#X obj 137 30 +;
#X floatatom 137 70 5 0 0 0 - - -, f 5;
#X floatatom 90 70 5 0 0 0 - - -, f 5;
#X obj 190 190 int;
#X obj 150 190 int;
#X obj 206 117 counter 2;
#X obj 206 144 select 0 1;
#X floatatom 170 230 5 0 0 0 - - -, f 5;
#X obj 127 -100 inlet;
#X obj 167 -100 inlet;
#X obj 207 -100 inlet;
#X obj 170 270 outlet;
#X connect 0 0 4 0;
#X connect 1 0 0 0;
#X connect 2 0 0 2;
#X connect 3 0 2 0;
#X connect 4 0 13 0;
#X connect 5 0 7 0;
#X connect 6 0 8 0;
#X connect 6 0 10 0;
#X connect 7 0 8 0;
#X connect 7 1 8 1;
#X connect 8 0 9 0;
#X connect 9 0 11 1;
#X connect 10 0 12 1;
#X connect 11 0 15 0;
#X connect 12 0 15 0;
#X connect 13 0 14 0;
#X connect 14 0 12 0;
#X connect 14 1 11 0;
#X connect 15 0 19 0;
#X connect 16 0 6 0;
#X connect 17 0 5 0;
#X connect 18 0 3 0;
