#N canvas 0 64 683 679 12;
#X obj 350 420 midiout;
#X msg 330 360 116;
#X obj 330 330 delay 1;
#X obj 400 330 delay 2;
#X obj 290 260 bng 15 250 50 0 empty empty empty 17 7 0 10 #fcfcfc
#000000 #000000;
#X obj 290 490 print;
#X msg 290 360 128;
#X msg 160 350 116;
#X obj 160 320 delay 1;
#X obj 230 320 delay 2;
#X obj 120 210 bng 15 250 50 0 empty empty empty 17 7 0 10 #fcfcfc
#000000 #000000;
#X msg 200 350 15;
#X msg 120 349 144;
#X msg 130 471 116;
#X obj 130 441 delay 1;
#X obj 200 441 delay 2;
#X obj 90 371 bng 15 250 50 0 empty empty empty 17 7 0 10 #fcfcfc #000000
#000000;
#X msg 90 470 144;
#X msg 170 470 63;
#X obj 290 100 bng 19 250 50 0 empty empty empty 17 7 0 10 #fcfcfc
#000000 #000000;
#X msg 370 360 0;
#X obj 120 99 bng 19 250 50 0 empty empty empty 17 7 0 10 #fcfcfc #000000
#000000;
#X obj 270 170 delay 10;
#X obj 120 170 delay 10;
#X msg 20 300 turn white;
#X obj 560 330 midiout;
#X msg 530 240 128;
#X msg 610 240 0;
#X floatatom 566 240 5 0 0 0 - - -, f 5;
#X connect 1 0 0 0;
#X connect 1 0 5 0;
#X connect 2 0 1 0;
#X connect 3 0 20 0;
#X connect 4 0 2 0;
#X connect 4 0 3 0;
#X connect 4 0 6 0;
#X connect 6 0 0 0;
#X connect 6 0 5 0;
#X connect 7 0 0 0;
#X connect 7 0 5 0;
#X connect 8 0 7 0;
#X connect 9 0 11 0;
#X connect 10 0 8 0;
#X connect 10 0 9 0;
#X connect 10 0 12 0;
#X connect 10 0 24 0;
#X connect 11 0 0 0;
#X connect 11 0 5 0;
#X connect 12 0 0 0;
#X connect 12 0 5 0;
#X connect 13 0 0 0;
#X connect 13 0 5 0;
#X connect 14 0 13 0;
#X connect 15 0 18 0;
#X connect 16 0 14 0;
#X connect 16 0 15 0;
#X connect 16 0 17 0;
#X connect 17 0 0 0;
#X connect 17 0 5 0;
#X connect 18 0 0 0;
#X connect 18 0 5 0;
#X connect 19 0 4 0;
#X connect 19 0 22 0;
#X connect 20 0 0 0;
#X connect 20 0 5 0;
#X connect 21 0 4 0;
#X connect 21 0 23 0;
#X connect 22 0 16 0;
#X connect 23 0 10 0;
#X connect 24 0 5 0;
