#N canvas 0 64 1366 679 12;
#X obj 370 80 metro;
#X floatatom 410 50 5 0 0 0 - - -, f 5;
#X obj 370 50 tgl 15 0 empty empty empty 17 7 0 10 #fcfcfc #000000
#000000 1 1;
#X obj 370 130 int;
#X obj 402 130 + 1;
#X floatatom 370 170 5 0 0 0 - - -, f 5;
#X msg 470 80 0;
#X obj 450 510 noteout;
#X floatatom 725 330 5 0 127 0 - - -, f 5;
#X floatatom 782 330 5 0 127 0 - - -, f 5;
#X floatatom 840 330 5 0 127 0 - - -, f 5;
#X obj 725 360 int;
#X obj 782 360 int;
#X obj 840 360 int;
#X obj 720 200 % 3;
#X floatatom 720 229 5 0 0 0 - - -, f 5;
#X obj 720 260 select 0 1 2;
#X floatatom 205 390 5 0 0 0 - - -, f 5;
#X floatatom 262 390 5 0 127 0 - - -, f 5;
#X floatatom 320 390 5 0 127 0 - - -, f 5;
#X obj 205 420 int;
#X obj 262 420 int;
#X obj 320 420 int;
#X obj 200 260 % 3;
#X floatatom 200 289 5 0 0 0 - - -, f 5;
#X obj 200 350 select 0 1 2;
#X floatatom 220 460 5 0 0 0 - - -, f 5;
#X floatatom 397 362 5 0 0 0 - - -, f 5;
#X floatatom 454 362 5 0 127 0 - - -, f 5;
#X floatatom 512 362 5 0 127 0 - - -, f 5;
#X obj 397 392 int;
#X obj 454 392 int;
#X obj 512 392 int;
#X floatatom 390 240 5 0 0 0 - - -, f 5;
#X floatatom 412 432 5 0 0 0 - - -, f 5;
#X floatatom 570 360 5 0 127 0 - - -, f 5;
#X floatatom 628 360 5 0 127 0 - - -, f 5;
#X obj 570 390 int;
#X obj 628 390 int;
#X obj 720 490 line;
#X obj 520 40 s tween;
#X floatatom 720 420 5 0 0 0 - - -, f 5;
#X floatatom 720 520 5 0 0 0 - - -, f 5;
#X floatatom 770 420 5 0 0 0 - - -, f 5;
#X obj 720 460 pack;
#X obj 470 470 +;
#X obj 720 550 ctlout 12;
#X floatatom 950 340 5 0 0 0 - - -, f 5;
#X floatatom 1007 340 5 0 127 0 - - -, f 5;
#X floatatom 1065 340 5 0 127 0 - - -, f 5;
#X obj 950 370 int;
#X obj 1007 370 int;
#X obj 1065 370 int;
#X floatatom 945 239 5 0 0 0 - - -, f 5;
#X floatatom 965 410 5 0 0 0 - - -, f 5;
#X obj 945 270 select 0 1 2 3 4 5;
#X floatatom 1123 338 5 0 127 0 - - -, f 5;
#X floatatom 1181 338 5 0 127 0 - - -, f 5;
#X obj 1123 368 int;
#X obj 1181 368 int;
#X obj 970 510 line;
#X floatatom 970 540 5 0 0 0 - - -, f 5;
#X floatatom 1020 440 5 0 0 0 - - -, f 5;
#X obj 970 480 pack;
#X obj 945 210 % 5;
#X obj 970 570 ctlout 23;
#X obj 1070 100 ctlin;
#X floatatom 1040 150 5 0 0 0 - - -, f 5;
#X floatatom 1100 150 5 0 0 0 - - -, f 5;
#X obj 390 290 select 0 1 2 3 4;
#X obj 600 440 nourish;
#X obj 490 440 t b f;
#X floatatom 460 580 5 0 0 0 - - -, f 5;
#X floatatom 517 580 5 0 127 0 - - -, f 5;
#X floatatom 575 580 5 0 127 0 - - -, f 5;
#X obj 460 610 int;
#X obj 517 610 int;
#X obj 575 610 int;
#X floatatom 633 578 5 0 127 0 - - -, f 5;
#X obj 633 608 int;
#X obj 460 540 bng 31 250 50 0 empty empty empty 17 7 0 10 #fcfcfc
#000000 #000000;
#X obj 517 540 bng 31 250 50 0 empty empty empty 17 7 0 10 #fcfcfc
#000000 #000000;
#X obj 575 540 bng 31 250 50 0 empty empty empty 17 7 0 10 #fcfcfc
#000000 #000000;
#X obj 632 540 bng 31 250 50 0 empty empty empty 17 7 0 10 #fcfcfc
#000000 #000000;
#X floatatom 460 650 5 0 0 0 - - -, f 5;
#X obj 310 500 +;
#X obj 330 470 t b f;
#X obj 140 120 key;
#X floatatom 140 160 5 0 0 0 - - -, f 5;
#X obj 468 170 tgl 15 0 empty empty empty 17 7 0 10 #fcfcfc #000000
#000000 1 1;
#X obj 450 200 int;
#X obj 496 170 tgl 15 0 empty empty empty 17 7 0 10 #fcfcfc #000000
#000000 1 1;
#X obj 478 200 int;
#X obj 524 170 tgl 15 0 empty empty empty 17 7 0 10 #fcfcfc #000000
#000000 1 1;
#X obj 506 200 int;
#X obj 552 170 tgl 15 0 empty empty empty 17 7 0 10 #fcfcfc #000000
#000000 1 1;
#X obj 534 200 int;
#X obj 580 170 tgl 15 0 empty empty empty 17 7 0 10 #fcfcfc #000000
#000000 0 1;
#X obj 562 200 int;
#X obj 608 170 tgl 15 0 empty empty empty 17 7 0 10 #fcfcfc #000000
#000000 0 1;
#X obj 590 200 int;
#X obj 636 170 tgl 15 0 empty empty empty 17 7 0 10 #fcfcfc #000000
#000000 0 1;
#X obj 618 200 int;
#X obj 664 170 tgl 15 0 empty empty empty 17 7 0 10 #fcfcfc #000000
#000000 0 1;
#X obj 646 200 int;
#X obj 490 250 spigot;
#X obj 484 125 select 0 1 2 3 4 5 6 7;
#X obj 840 430 nourish;
#X obj 90 567 tgl 15 0 empty empty empty 17 7 0 10 #fcfcfc #000000
#000000 1 1;
#X obj 72 597 int;
#X obj 118 567 tgl 15 0 empty empty empty 17 7 0 10 #fcfcfc #000000
#000000 1 1;
#X obj 100 597 int;
#X obj 146 567 tgl 15 0 empty empty empty 17 7 0 10 #fcfcfc #000000
#000000 1 1;
#X obj 128 597 int;
#X obj 174 567 tgl 15 0 empty empty empty 17 7 0 10 #fcfcfc #000000
#000000 0 1;
#X obj 156 597 int;
#X obj 202 567 tgl 15 0 empty empty empty 17 7 0 10 #fcfcfc #000000
#000000 0 1;
#X obj 184 597 int;
#X obj 230 567 tgl 15 0 empty empty empty 17 7 0 10 #fcfcfc #000000
#000000 0 1;
#X obj 212 597 int;
#X obj 258 567 tgl 15 0 empty empty empty 17 7 0 10 #fcfcfc #000000
#000000 0 1;
#X obj 240 597 int;
#X obj 286 567 tgl 15 0 empty empty empty 17 7 0 10 #fcfcfc #000000
#000000 0 1;
#X obj 268 597 int;
#X obj 112 647 spigot;
#X obj 106 522 select 0 1 2 3 4 5 6 7;
#X obj 390 210 % 5;
#X connect 0 0 3 0;
#X connect 1 0 0 1;
#X connect 1 0 40 0;
#X connect 2 0 0 0;
#X connect 3 0 4 0;
#X connect 3 0 5 0;
#X connect 4 0 3 1;
#X connect 5 0 14 0;
#X connect 5 0 23 0;
#X connect 5 0 64 0;
#X connect 5 0 126 0;
#X connect 6 0 3 0;
#X connect 8 0 11 1;
#X connect 9 0 12 1;
#X connect 10 0 13 1;
#X connect 11 0 41 0;
#X connect 12 0 41 0;
#X connect 13 0 41 0;
#X connect 14 0 15 0;
#X connect 15 0 16 0;
#X connect 16 0 11 0;
#X connect 16 1 12 0;
#X connect 16 2 13 0;
#X connect 17 0 20 1;
#X connect 18 0 21 1;
#X connect 19 0 22 1;
#X connect 20 0 26 0;
#X connect 21 0 26 0;
#X connect 22 0 26 0;
#X connect 23 0 24 0;
#X connect 24 0 125 0;
#X connect 24 0 124 0;
#X connect 25 0 20 0;
#X connect 25 1 21 0;
#X connect 25 2 22 0;
#X connect 26 0 85 0;
#X connect 27 0 30 1;
#X connect 28 0 31 1;
#X connect 29 0 32 1;
#X connect 30 0 34 0;
#X connect 31 0 34 0;
#X connect 32 0 34 0;
#X connect 33 0 105 0;
#X connect 33 0 106 0;
#X connect 34 0 45 0;
#X connect 35 0 37 1;
#X connect 36 0 38 1;
#X connect 37 0 34 0;
#X connect 38 0 34 0;
#X connect 39 0 42 0;
#X connect 41 0 70 0;
#X connect 42 0 46 0;
#X connect 43 0 44 1;
#X connect 44 0 39 0;
#X connect 45 0 7 0;
#X connect 47 0 50 1;
#X connect 48 0 51 1;
#X connect 49 0 52 1;
#X connect 50 0 54 0;
#X connect 51 0 54 0;
#X connect 52 0 54 0;
#X connect 53 0 55 0;
#X connect 54 0 107 0;
#X connect 55 0 50 0;
#X connect 55 1 51 0;
#X connect 55 2 52 0;
#X connect 55 3 49 0;
#X connect 55 4 56 0;
#X connect 55 5 57 0;
#X connect 56 0 58 1;
#X connect 57 0 59 1;
#X connect 58 0 54 0;
#X connect 59 0 54 0;
#X connect 60 0 61 0;
#X connect 61 0 65 0;
#X connect 62 0 63 1;
#X connect 63 0 60 0;
#X connect 64 0 53 0;
#X connect 66 0 67 0;
#X connect 66 1 68 0;
#X connect 69 0 30 0;
#X connect 69 1 31 0;
#X connect 69 2 32 0;
#X connect 69 3 37 0;
#X connect 69 4 38 0;
#X connect 70 0 44 0;
#X connect 71 0 45 0;
#X connect 71 1 45 1;
#X connect 72 0 75 1;
#X connect 73 0 76 1;
#X connect 74 0 77 1;
#X connect 75 0 84 0;
#X connect 76 0 84 0;
#X connect 77 0 84 0;
#X connect 78 0 79 1;
#X connect 79 0 84 0;
#X connect 80 0 75 0;
#X connect 81 0 76 0;
#X connect 82 0 77 0;
#X connect 83 0 79 0;
#X connect 84 0 86 0;
#X connect 85 0 7 0;
#X connect 86 0 85 0;
#X connect 86 1 85 1;
#X connect 87 0 88 0;
#X connect 89 0 90 1;
#X connect 90 0 105 1;
#X connect 91 0 92 1;
#X connect 92 0 105 1;
#X connect 93 0 94 1;
#X connect 94 0 105 1;
#X connect 95 0 96 1;
#X connect 96 0 105 1;
#X connect 97 0 98 1;
#X connect 98 0 105 1;
#X connect 99 0 100 1;
#X connect 100 0 105 1;
#X connect 101 0 102 1;
#X connect 102 0 105 1;
#X connect 103 0 104 1;
#X connect 104 0 105 1;
#X connect 105 0 69 0;
#X connect 106 0 90 0;
#X connect 106 1 92 0;
#X connect 106 2 94 0;
#X connect 106 3 96 0;
#X connect 106 4 98 0;
#X connect 106 5 100 0;
#X connect 106 6 102 0;
#X connect 106 7 104 0;
#X connect 107 0 63 0;
#X connect 108 0 109 1;
#X connect 109 0 124 1;
#X connect 110 0 111 1;
#X connect 111 0 124 1;
#X connect 112 0 113 1;
#X connect 113 0 124 1;
#X connect 114 0 115 1;
#X connect 115 0 124 1;
#X connect 116 0 117 1;
#X connect 117 0 124 1;
#X connect 118 0 119 1;
#X connect 119 0 124 1;
#X connect 120 0 121 1;
#X connect 121 0 124 1;
#X connect 122 0 123 1;
#X connect 123 0 124 1;
#X connect 124 0 25 0;
#X connect 125 0 109 0;
#X connect 125 1 111 0;
#X connect 125 2 113 0;
#X connect 125 3 115 0;
#X connect 125 4 117 0;
#X connect 125 5 119 0;
#X connect 125 6 121 0;
#X connect 125 7 123 0;
#X connect 126 0 33 0;
