#N canvas 191 169 1024 493 12;
#X obj 83 63 metro 100;
#X obj 83 17 tgl 19 0 empty empty empty 17 7 0 10 #fcfcfc #000000 #000000
0 1;
#X obj 50 82 bng 15 250 50 0 empty empty empty 17 7 0 10 #fcfcfc #000000
#000000;
#X obj 80 110 s \$0-metro;
#X floatatom 170 20 5 0 0 0 - - -, f 5;
#X obj 62 630 noteout 2;
#X msg 91 579 127;
#X obj 52 571 0;
#X obj 50 310 noteout 2;
#X msg 79 259 127;
#X obj 40 251 0;
#X obj 214 461 counter;
#X obj 214 431 r \$0-metro;
#X obj 260 201 vradio 15 0 0 9 empty empty empty 0 -8 0 10 #fcfcfc
#000000 #000000 0;
#X floatatom 260 400 5 0 0 0 - - -, f 5;
#X obj 260 350 +;
#X floatatom 290 291 5 0 0 0 - - -, f 5;
#X obj 290 230 moses 0.5;
#X obj 290 194 vradio 15 0 0 2 empty empty empty 0 -8 0 10 #fcfcfc
#000000 #000000 0;
#X msg 340 261 8;
#X msg 290 263 0;
#X obj 214 499 s \$0-div1a;
#X obj 290 318 t b f;
#X obj 334 460 counter;
#X obj 334 430 r \$0-metro;
#X obj 380 200 vradio 15 0 0 9 empty empty empty 0 -8 0 10 #fcfcfc
#000000 #000000 0;
#X floatatom 380 399 5 0 0 0 - - -, f 5;
#X obj 380 349 +;
#X floatatom 410 290 5 0 0 0 - - -, f 5;
#X obj 410 229 moses 0.5;
#X obj 410 193 vradio 15 0 0 2 empty empty empty 0 -8 0 10 #fcfcfc
#000000 #000000 0;
#X msg 460 260 8;
#X msg 410 262 0;
#X obj 410 317 t b f;
#X obj 454 461 counter;
#X obj 454 431 r \$0-metro;
#X obj 500 201 vradio 15 0 0 9 empty empty empty 0 -8 0 10 #fcfcfc
#000000 #000000 0;
#X floatatom 500 400 5 0 0 0 - - -, f 5;
#X obj 500 350 +;
#X floatatom 530 291 5 0 0 0 - - -, f 5;
#X obj 530 230 moses 0.5;
#X obj 530 194 vradio 15 0 0 2 empty empty empty 0 -8 0 10 #fcfcfc
#000000 #000000 0;
#X msg 580 261 8;
#X msg 530 263 0;
#X obj 530 318 t b f;
#X obj 574 462 counter;
#X obj 574 432 r \$0-metro;
#X obj 620 202 vradio 15 0 0 9 empty empty empty 0 -8 0 10 #fcfcfc
#000000 #000000 0;
#X floatatom 620 401 5 0 0 0 - - -, f 5;
#X obj 620 351 +;
#X floatatom 650 292 5 0 0 0 - - -, f 5;
#X obj 650 231 moses 0.5;
#X obj 650 195 vradio 15 0 0 2 empty empty empty 0 -8 0 10 #fcfcfc
#000000 #000000 0;
#X msg 700 262 8;
#X msg 650 264 0;
#X obj 650 319 t b f;
#X msg 142 570 3;
#X obj 820 250 tgl 15 0 empty empty empty 17 7 0 10 #fcfcfc #000000
#000000 0 2;
#X obj 780 280 spigot;
#X obj 780 250 bng 15 250 50 0 empty empty empty 17 7 0 10 #fcfcfc
#000000 #000000;
#X obj 942 251 tgl 15 0 empty empty empty 17 7 0 10 #fcfcfc #000000
#000000 0 5;
#X obj 902 281 spigot;
#X obj 902 251 bng 15 250 50 0 empty empty empty 17 7 0 10 #fcfcfc
#000000 #000000;
#X obj 1070 249 tgl 15 0 empty empty empty 17 7 0 10 #fcfcfc #000000
#000000 0 5;
#X obj 1030 279 spigot;
#X obj 1030 249 bng 15 250 50 0 empty empty empty 17 7 0 10 #fcfcfc
#000000 #000000;
#X obj 1192 250 tgl 15 0 empty empty empty 17 7 0 10 #fcfcfc #000000
#000000 0 5;
#X obj 1152 280 spigot;
#X obj 1152 250 bng 15 250 50 0 empty empty empty 17 7 0 10 #fcfcfc
#000000 #000000;
#X obj 334 498 s \$0-div2a;
#X obj 780 200 r \$0-div1a;
#X obj 902 200 r \$0-div2a;
#X obj 1030 200 r \$0-div2a;
#X obj 1150 202 r \$0-div2a;
#X obj 780 312 s \$0-rowa;
#X obj 202 803 counter;
#X obj 202 773 r \$0-metro;
#X obj 248 543 vradio 15 0 0 9 empty empty empty 0 -8 0 10 #fcfcfc
#000000 #000000 0;
#X floatatom 248 742 5 0 0 0 - - -, f 5;
#X obj 248 692 +;
#X floatatom 278 633 5 0 0 0 - - -, f 5;
#X obj 278 572 moses 0.5;
#X obj 278 536 vradio 15 0 0 2 empty empty empty 0 -8 0 10 #fcfcfc
#000000 #000000 0;
#X msg 328 603 8;
#X msg 278 605 0;
#X obj 278 660 t b f;
#X obj 322 802 counter;
#X obj 322 772 r \$0-metro;
#X obj 368 542 vradio 15 0 0 9 empty empty empty 0 -8 0 10 #fcfcfc
#000000 #000000 0;
#X floatatom 368 741 5 0 0 0 - - -, f 5;
#X obj 368 691 +;
#X floatatom 398 632 5 0 0 0 - - -, f 5;
#X obj 398 571 moses 0.5;
#X obj 398 535 vradio 15 0 0 2 empty empty empty 0 -8 0 10 #fcfcfc
#000000 #000000 0;
#X msg 448 602 8;
#X msg 398 604 0;
#X obj 398 659 t b f;
#X obj 442 803 counter;
#X obj 442 773 r \$0-metro;
#X obj 488 543 vradio 15 0 0 9 empty empty empty 0 -8 0 10 #fcfcfc
#000000 #000000 0;
#X floatatom 488 742 5 0 0 0 - - -, f 5;
#X obj 488 692 +;
#X floatatom 518 633 5 0 0 0 - - -, f 5;
#X obj 518 572 moses 0.5;
#X obj 518 536 vradio 15 0 0 2 empty empty empty 0 -8 0 10 #fcfcfc
#000000 #000000 0;
#X msg 568 603 8;
#X msg 518 605 0;
#X obj 518 660 t b f;
#X obj 562 804 counter;
#X obj 562 774 r \$0-metro;
#X obj 608 544 vradio 15 0 0 9 empty empty empty 0 -8 0 10 #fcfcfc
#000000 #000000 0;
#X floatatom 608 743 5 0 0 0 - - -, f 5;
#X obj 608 693 +;
#X floatatom 638 634 5 0 0 0 - - -, f 5;
#X obj 638 573 moses 0.5;
#X obj 638 537 vradio 15 0 0 2 empty empty empty 0 -8 0 10 #fcfcfc
#000000 #000000 0;
#X msg 688 604 8;
#X msg 638 606 0;
#X obj 638 661 t b f;
#X obj 202 841 s \$0-div1b;
#X obj 322 840 s \$0-div2b;
#X obj 820 420 tgl 15 0 empty empty empty 17 7 0 10 #fcfcfc #000000
#000000 0 2;
#X obj 780 450 spigot;
#X obj 780 420 bng 15 250 50 0 empty empty empty 17 7 0 10 #fcfcfc
#000000 #000000;
#X obj 942 421 tgl 15 0 empty empty empty 17 7 0 10 #fcfcfc #000000
#000000 0 5;
#X obj 902 451 spigot;
#X obj 902 421 bng 15 250 50 0 empty empty empty 17 7 0 10 #fcfcfc
#000000 #000000;
#X obj 1070 419 tgl 15 0 empty empty empty 17 7 0 10 #fcfcfc #000000
#000000 0 5;
#X obj 1030 449 spigot;
#X obj 1030 419 bng 15 250 50 0 empty empty empty 17 7 0 10 #fcfcfc
#000000 #000000;
#X obj 1192 420 tgl 15 0 empty empty empty 17 7 0 10 #fcfcfc #000000
#000000 0 5;
#X obj 1152 450 spigot;
#X obj 1152 420 bng 15 250 50 0 empty empty empty 17 7 0 10 #fcfcfc
#000000 #000000;
#X obj 902 484 s \$0-col2;
#X obj 1030 482 s \$0-col2;
#X obj 1152 482 s \$0-col2;
#X obj 780 482 s \$0-rowb;
#X obj 902 314 s \$0-col2a;
#X obj 1030 312 s \$0-col3a;
#X obj 1152 312 s \$0-col4a;
#X obj 50 480 noteout 2;
#X msg 79 429 127;
#X obj 40 421 0;
#X obj 50 790 noteout 2;
#X msg 79 739 127;
#X obj 40 731 0;
#X obj 40 393 bng 15 250 50 0 empty empty empty 17 7 0 10 #fcfcfc #000000
#000000;
#X obj 40 703 bng 15 250 50 0 empty empty empty 17 7 0 10 #fcfcfc #000000
#000000;
#X obj 194 1142 counter;
#X obj 194 1112 r \$0-metro;
#X obj 240 882 vradio 15 0 0 9 empty empty empty 0 -8 0 10 #fcfcfc
#000000 #000000 0;
#X floatatom 240 1081 5 0 0 0 - - -, f 5;
#X obj 240 1031 +;
#X floatatom 270 972 5 0 0 0 - - -, f 5;
#X obj 270 911 moses 0.5;
#X obj 270 875 vradio 15 0 0 2 empty empty empty 0 -8 0 10 #fcfcfc
#000000 #000000 0;
#X msg 320 942 8;
#X msg 270 944 0;
#X obj 270 999 t b f;
#X obj 314 1141 counter;
#X obj 314 1111 r \$0-metro;
#X obj 360 881 vradio 15 0 0 9 empty empty empty 0 -8 0 10 #fcfcfc
#000000 #000000 0;
#X floatatom 360 1080 5 0 0 0 - - -, f 5;
#X obj 360 1030 +;
#X floatatom 390 971 5 0 0 0 - - -, f 5;
#X obj 390 910 moses 0.5;
#X obj 390 874 vradio 15 0 0 2 empty empty empty 0 -8 0 10 #fcfcfc
#000000 #000000 0;
#X msg 440 941 8;
#X msg 390 943 0;
#X obj 390 998 t b f;
#X obj 434 1142 counter;
#X obj 434 1112 r \$0-metro;
#X obj 480 882 vradio 15 0 0 9 empty empty empty 0 -8 0 10 #fcfcfc
#000000 #000000 0;
#X floatatom 480 1081 5 0 0 0 - - -, f 5;
#X obj 480 1031 +;
#X floatatom 510 972 5 0 0 0 - - -, f 5;
#X obj 510 911 moses 0.5;
#X obj 510 875 vradio 15 0 0 2 empty empty empty 0 -8 0 10 #fcfcfc
#000000 #000000 0;
#X msg 560 942 8;
#X msg 510 944 0;
#X obj 510 999 t b f;
#X obj 554 1143 counter;
#X obj 554 1113 r \$0-metro;
#X obj 600 883 vradio 15 0 0 9 empty empty empty 0 -8 0 10 #fcfcfc
#000000 #000000 0;
#X floatatom 600 1082 5 0 0 0 - - -, f 5;
#X obj 600 1032 +;
#X floatatom 630 973 5 0 0 0 - - -, f 5;
#X obj 630 912 moses 0.5;
#X obj 630 876 vradio 15 0 0 2 empty empty empty 0 -8 0 10 #fcfcfc
#000000 #000000 0;
#X msg 680 943 8;
#X msg 630 945 0;
#X obj 630 1000 t b f;
#X obj 182 1484 counter;
#X obj 182 1454 r \$0-metro;
#X obj 228 1224 vradio 15 0 0 9 empty empty empty 0 -8 0 10 #fcfcfc
#000000 #000000 0;
#X floatatom 228 1423 5 0 0 0 - - -, f 5;
#X obj 228 1373 +;
#X floatatom 258 1314 5 0 0 0 - - -, f 5;
#X obj 258 1253 moses 0.5;
#X obj 258 1217 vradio 15 0 0 2 empty empty empty 0 -8 0 10 #fcfcfc
#000000 #000000 0;
#X msg 308 1284 8;
#X msg 258 1286 0;
#X obj 258 1341 t b f;
#X obj 302 1483 counter;
#X obj 302 1453 r \$0-metro;
#X obj 348 1223 vradio 15 0 0 9 empty empty empty 0 -8 0 10 #fcfcfc
#000000 #000000 0;
#X floatatom 348 1422 5 0 0 0 - - -, f 5;
#X obj 348 1372 +;
#X floatatom 378 1313 5 0 0 0 - - -, f 5;
#X obj 378 1252 moses 0.5;
#X obj 378 1216 vradio 15 0 0 2 empty empty empty 0 -8 0 10 #fcfcfc
#000000 #000000 0;
#X msg 428 1283 8;
#X msg 378 1285 0;
#X obj 378 1340 t b f;
#X obj 422 1484 counter;
#X obj 422 1454 r \$0-metro;
#X obj 468 1224 vradio 15 0 0 9 empty empty empty 0 -8 0 10 #fcfcfc
#000000 #000000 0;
#X floatatom 468 1423 5 0 0 0 - - -, f 5;
#X obj 468 1373 +;
#X floatatom 498 1314 5 0 0 0 - - -, f 5;
#X obj 498 1253 moses 0.5;
#X obj 498 1217 vradio 15 0 0 2 empty empty empty 0 -8 0 10 #fcfcfc
#000000 #000000 0;
#X msg 548 1284 8;
#X msg 498 1286 0;
#X obj 498 1341 t b f;
#X obj 542 1485 counter;
#X obj 542 1455 r \$0-metro;
#X obj 588 1225 vradio 15 0 0 9 empty empty empty 0 -8 0 10 #fcfcfc
#000000 #000000 0;
#X floatatom 588 1424 5 0 0 0 - - -, f 5;
#X obj 588 1374 +;
#X floatatom 618 1315 5 0 0 0 - - -, f 5;
#X obj 618 1254 moses 0.5;
#X obj 618 1218 vradio 15 0 0 2 empty empty empty 0 -8 0 10 #fcfcfc
#000000 #000000 0;
#X msg 668 1285 8;
#X msg 618 1287 0;
#X obj 618 1342 t b f;
#X obj 454 499 s \$0-div3a;
#X obj 570 500 s \$0-div4a;
#X obj 442 841 s \$0-div3b;
#X obj 195 1182 s \$0-div1c;
#X obj 314 1179 s \$0-div2c;
#X obj 434 1180 s \$0-div3c;
#X obj 554 1180 s \$0-div4c;
#X obj 545 1522 s \$0-div4d;
#X obj 425 1522 s \$0-div3d;
#X obj 305 1522 s \$0-div2d;
#X obj 185 1522 s \$0-div1d;
#X obj 818 599 tgl 15 0 empty empty empty 17 7 0 10 #fcfcfc #000000
#000000 0 2;
#X obj 778 629 spigot;
#X obj 778 599 bng 15 250 50 0 empty empty empty 17 7 0 10 #fcfcfc
#000000 #000000;
#X obj 940 600 tgl 15 0 empty empty empty 17 7 0 10 #fcfcfc #000000
#000000 0 5;
#X obj 900 630 spigot;
#X obj 900 600 bng 15 250 50 0 empty empty empty 17 7 0 10 #fcfcfc
#000000 #000000;
#X obj 1068 598 tgl 15 0 empty empty empty 17 7 0 10 #fcfcfc #000000
#000000 0 5;
#X obj 1028 628 spigot;
#X obj 1028 598 bng 15 250 50 0 empty empty empty 17 7 0 10 #fcfcfc
#000000 #000000;
#X obj 1190 599 tgl 15 0 empty empty empty 17 7 0 10 #fcfcfc #000000
#000000 0 5;
#X obj 1150 629 spigot;
#X obj 1150 599 bng 15 250 50 0 empty empty empty 17 7 0 10 #fcfcfc
#000000 #000000;
#X obj 818 769 tgl 15 0 empty empty empty 17 7 0 10 #fcfcfc #000000
#000000 0 2;
#X obj 778 799 spigot;
#X obj 778 769 bng 15 250 50 0 empty empty empty 17 7 0 10 #fcfcfc
#000000 #000000;
#X obj 940 770 tgl 15 0 empty empty empty 17 7 0 10 #fcfcfc #000000
#000000 0 5;
#X obj 900 800 spigot;
#X obj 900 770 bng 15 250 50 0 empty empty empty 17 7 0 10 #fcfcfc
#000000 #000000;
#X obj 1068 768 tgl 15 0 empty empty empty 17 7 0 10 #fcfcfc #000000
#000000 0 5;
#X obj 1028 798 spigot;
#X obj 1028 768 bng 15 250 50 0 empty empty empty 17 7 0 10 #fcfcfc
#000000 #000000;
#X obj 1190 769 tgl 15 0 empty empty empty 17 7 0 10 #fcfcfc #000000
#000000 0 5;
#X obj 1150 799 spigot;
#X obj 1150 769 bng 15 250 50 0 empty empty empty 17 7 0 10 #fcfcfc
#000000 #000000;
#X obj 900 833 s \$0-col2;
#X obj 1028 831 s \$0-col2;
#X obj 1150 831 s \$0-col2;
#X obj 778 860 s \$0-col2;
#X obj 900 663 s \$0-col2a;
#X obj 1028 661 s \$0-col3a;
#X obj 1150 661 s \$0-col4a;
#X obj 778 549 r \$0-div1c;
#X obj 900 549 r \$0-div2c;
#X obj 1028 549 r \$0-div2c;
#X obj 1150 549 r \$0-div2d;
#X obj 778 719 r \$0-div1d;
#X obj 900 719 r \$0-div2d;
#X obj 1028 719 r \$0-div2d;
#X obj 1148 721 r \$0-div2d;
#X obj 40 217 bng 15 250 50 0 empty empty empty 17 7 0 10 #fcfcfc #000000
#000000;
#X obj 52 542 bng 15 250 50 0 empty empty empty 17 7 0 10 #fcfcfc #000000
#000000;
#X obj 778 662 s \$0-rowc;
#X obj 792 832 s \$0-rowd;
#X obj 40 182 r \$0-rowa;
#X obj 40 360 r \$0-rowb;
#X obj 52 512 r \$0-rowc;
#X obj 40 671 r \$0-rowd;
#X obj 560 840 s \$0-div4b;
#X obj 780 370 r \$0-div1b;
#X obj 902 372 r \$0-div2b;
#X obj 1030 370 r \$0-div2b;
#X obj 1152 372 r \$0-div2b;
#X obj 1302 250 tgl 15 0 empty empty empty 17 7 0 10 #fcfcfc #000000
#000000 0 2;
#X obj 1262 280 spigot;
#X obj 1262 250 bng 15 250 50 0 empty empty empty 17 7 0 10 #fcfcfc
#000000 #000000;
#X obj 1302 423 tgl 15 0 empty empty empty 17 7 0 10 #fcfcfc #000000
#000000 0 5;
#X obj 1262 453 spigot;
#X obj 1262 423 bng 15 250 50 0 empty empty empty 17 7 0 10 #fcfcfc
#000000 #000000;
#X obj 1302 599 tgl 15 0 empty empty empty 17 7 0 10 #fcfcfc #000000
#000000 0 5;
#X obj 1262 629 spigot;
#X obj 1262 599 bng 15 250 50 0 empty empty empty 17 7 0 10 #fcfcfc
#000000 #000000;
#X obj 1304 770 tgl 15 0 empty empty empty 17 7 0 10 #fcfcfc #000000
#000000 0 5;
#X obj 1264 800 spigot;
#X obj 1264 770 bng 15 250 50 0 empty empty empty 17 7 0 10 #fcfcfc
#000000 #000000;
#X obj 1262 200 r \$0-div1a;
#X obj 1262 372 r \$0-div1b;
#X obj 1262 550 r \$0-div1c;
#X obj 1262 722 r \$0-div1d;
#X obj 1269 312 s \$0-col1;
#X obj 260 132 noteout 2;
#X msg 289 81 127;
#X obj 250 73 0;
#X obj 250 53 bng 15 250 50 0 empty empty empty 17 7 0 10 #fcfcfc #000000
#000000;
#X obj 250 30 r \$0-col1;
#X obj 1392 250 tgl 15 0 empty empty empty 17 7 0 10 #fcfcfc #000000
#000000 0 2;
#X obj 1352 280 spigot;
#X obj 1352 250 bng 15 250 50 0 empty empty empty 17 7 0 10 #fcfcfc
#000000 #000000;
#X obj 1392 423 tgl 15 0 empty empty empty 17 7 0 10 #fcfcfc #000000
#000000 0 5;
#X obj 1352 453 spigot;
#X obj 1352 423 bng 15 250 50 0 empty empty empty 17 7 0 10 #fcfcfc
#000000 #000000;
#X obj 1392 599 tgl 15 0 empty empty empty 17 7 0 10 #fcfcfc #000000
#000000 0 5;
#X obj 1352 629 spigot;
#X obj 1352 599 bng 15 250 50 0 empty empty empty 17 7 0 10 #fcfcfc
#000000 #000000;
#X obj 1394 770 tgl 15 0 empty empty empty 17 7 0 10 #fcfcfc #000000
#000000 0 5;
#X obj 1354 800 spigot;
#X obj 1354 770 bng 15 250 50 0 empty empty empty 17 7 0 10 #fcfcfc
#000000 #000000;
#X obj 1352 200 r \$0-div2a;
#X obj 1352 372 r \$0-div2b;
#X obj 1352 550 r \$0-div2c;
#X obj 1352 722 r \$0-div2d;
#X obj 1359 312 s \$0-col2;
#X obj 400 139 noteout 2;
#X msg 429 88 127;
#X obj 390 80 0;
#X obj 390 55 bng 15 250 50 0 empty empty empty 17 7 0 10 #fcfcfc #000000
#000000;
#X msg 480 80 6;
#X obj 390 30 r \$0-col2;
#X obj 1482 250 tgl 15 0 empty empty empty 17 7 0 10 #fcfcfc #000000
#000000 0 2;
#X obj 1442 280 spigot;
#X obj 1442 250 bng 15 250 50 0 empty empty empty 17 7 0 10 #fcfcfc
#000000 #000000;
#X obj 1482 423 tgl 15 0 empty empty empty 17 7 0 10 #fcfcfc #000000
#000000 0 5;
#X obj 1442 453 spigot;
#X obj 1442 423 bng 15 250 50 0 empty empty empty 17 7 0 10 #fcfcfc
#000000 #000000;
#X obj 1482 599 tgl 15 0 empty empty empty 17 7 0 10 #fcfcfc #000000
#000000 0 5;
#X obj 1442 629 spigot;
#X obj 1442 599 bng 15 250 50 0 empty empty empty 17 7 0 10 #fcfcfc
#000000 #000000;
#X obj 1484 770 tgl 15 0 empty empty empty 17 7 0 10 #fcfcfc #000000
#000000 0 5;
#X obj 1444 800 spigot;
#X obj 1444 770 bng 15 250 50 0 empty empty empty 17 7 0 10 #fcfcfc
#000000 #000000;
#X obj 1449 312 s \$0-col1;
#X obj 1572 250 tgl 15 0 empty empty empty 17 7 0 10 #fcfcfc #000000
#000000 0 2;
#X obj 1532 280 spigot;
#X obj 1532 250 bng 15 250 50 0 empty empty empty 17 7 0 10 #fcfcfc
#000000 #000000;
#X obj 1572 423 tgl 15 0 empty empty empty 17 7 0 10 #fcfcfc #000000
#000000 0 5;
#X obj 1532 453 spigot;
#X obj 1532 423 bng 15 250 50 0 empty empty empty 17 7 0 10 #fcfcfc
#000000 #000000;
#X obj 1572 599 tgl 15 0 empty empty empty 17 7 0 10 #fcfcfc #000000
#000000 0 5;
#X obj 1532 629 spigot;
#X obj 1532 599 bng 15 250 50 0 empty empty empty 17 7 0 10 #fcfcfc
#000000 #000000;
#X obj 1574 770 tgl 15 0 empty empty empty 17 7 0 10 #fcfcfc #000000
#000000 0 5;
#X obj 1534 800 spigot;
#X obj 1534 770 bng 15 250 50 0 empty empty empty 17 7 0 10 #fcfcfc
#000000 #000000;
#X obj 1539 312 s \$0-col2;
#X obj 1442 200 r \$0-div3a;
#X obj 1442 372 r \$0-div3b;
#X obj 1442 550 r \$0-div3c;
#X obj 1442 722 r \$0-div3d;
#X obj 1532 722 r \$0-div4d;
#X obj 1532 550 r \$0-div4c;
#X obj 1532 372 r \$0-div4b;
#X obj 1532 200 r \$0-div4a;
#X obj 550 129 noteout 2;
#X msg 579 78 127;
#X obj 540 80 0;
#X obj 540 55 bng 15 250 50 0 empty empty empty 17 7 0 10 #fcfcfc #000000
#000000;
#X obj 540 30 r \$0-col1;
#X obj 690 129 noteout 2;
#X msg 719 78 127;
#X obj 680 70 0;
#X obj 680 53 bng 15 250 50 0 empty empty empty 17 7 0 10 #fcfcfc #000000
#000000;
#X obj 680 30 r \$0-col2;
#X msg 630 70 0;
#X msg 770 70 0;
#X obj 30 30 inlet;
#X msg 340 70 2;
#X obj 380 160 outlet;
#X obj 530 160 outlet;
#X obj 680 160 outlet;
#X msg 130 421 2;
#X msg 130 730 4;
#X msg 132 249 5;
#X obj 20 80 bng 15 250 50 0 empty empty empty 17 7 0 10 #fcfcfc #000000
#000000;
#X connect 0 0 2 0;
#X connect 0 0 3 0;
#X connect 1 0 0 0;
#X connect 4 0 0 1;
#X connect 6 0 5 1;
#X connect 7 0 5 0;
#X connect 9 0 8 1;
#X connect 10 0 8 0;
#X connect 11 1 21 0;
#X connect 12 0 11 0;
#X connect 13 0 15 0;
#X connect 14 0 11 2;
#X connect 15 0 14 0;
#X connect 16 0 22 0;
#X connect 17 0 20 0;
#X connect 17 1 19 0;
#X connect 18 0 17 0;
#X connect 19 0 16 0;
#X connect 20 0 16 0;
#X connect 22 0 15 0;
#X connect 22 1 15 1;
#X connect 23 1 69 0;
#X connect 24 0 23 0;
#X connect 25 0 27 0;
#X connect 26 0 23 2;
#X connect 27 0 26 0;
#X connect 28 0 33 0;
#X connect 29 0 32 0;
#X connect 29 1 31 0;
#X connect 30 0 29 0;
#X connect 31 0 28 0;
#X connect 32 0 28 0;
#X connect 33 0 27 0;
#X connect 33 1 27 1;
#X connect 34 1 236 0;
#X connect 35 0 34 0;
#X connect 36 0 38 0;
#X connect 37 0 34 2;
#X connect 38 0 37 0;
#X connect 39 0 44 0;
#X connect 40 0 43 0;
#X connect 40 1 42 0;
#X connect 41 0 40 0;
#X connect 42 0 39 0;
#X connect 43 0 39 0;
#X connect 44 0 38 0;
#X connect 44 1 38 1;
#X connect 45 1 237 0;
#X connect 46 0 45 0;
#X connect 47 0 49 0;
#X connect 48 0 45 2;
#X connect 49 0 48 0;
#X connect 50 0 55 0;
#X connect 51 0 54 0;
#X connect 51 1 53 0;
#X connect 52 0 51 0;
#X connect 53 0 50 0;
#X connect 54 0 50 0;
#X connect 55 0 49 0;
#X connect 55 1 49 1;
#X connect 56 0 5 2;
#X connect 57 0 58 1;
#X connect 58 0 74 0;
#X connect 59 0 58 0;
#X connect 60 0 61 1;
#X connect 61 0 59 0;
#X connect 61 0 137 0;
#X connect 62 0 61 0;
#X connect 63 0 64 1;
#X connect 64 0 62 0;
#X connect 64 0 138 0;
#X connect 65 0 64 0;
#X connect 66 0 67 1;
#X connect 67 0 65 0;
#X connect 67 0 139 0;
#X connect 68 0 67 0;
#X connect 70 0 59 0;
#X connect 70 0 57 0;
#X connect 71 0 62 0;
#X connect 71 0 60 0;
#X connect 72 0 65 0;
#X connect 72 0 63 0;
#X connect 73 0 68 0;
#X connect 73 0 66 0;
#X connect 75 1 119 0;
#X connect 76 0 75 0;
#X connect 77 0 79 0;
#X connect 78 0 75 2;
#X connect 79 0 78 0;
#X connect 80 0 85 0;
#X connect 81 0 84 0;
#X connect 81 1 83 0;
#X connect 82 0 81 0;
#X connect 83 0 80 0;
#X connect 84 0 80 0;
#X connect 85 0 79 0;
#X connect 85 1 79 1;
#X connect 86 1 120 0;
#X connect 87 0 86 0;
#X connect 88 0 90 0;
#X connect 89 0 86 2;
#X connect 90 0 89 0;
#X connect 91 0 96 0;
#X connect 92 0 95 0;
#X connect 92 1 94 0;
#X connect 93 0 92 0;
#X connect 94 0 91 0;
#X connect 95 0 91 0;
#X connect 96 0 90 0;
#X connect 96 1 90 1;
#X connect 97 1 238 0;
#X connect 98 0 97 0;
#X connect 99 0 101 0;
#X connect 100 0 97 2;
#X connect 101 0 100 0;
#X connect 102 0 107 0;
#X connect 103 0 106 0;
#X connect 103 1 105 0;
#X connect 104 0 103 0;
#X connect 105 0 102 0;
#X connect 106 0 102 0;
#X connect 107 0 101 0;
#X connect 107 1 101 1;
#X connect 108 1 294 0;
#X connect 109 0 108 0;
#X connect 110 0 112 0;
#X connect 111 0 108 2;
#X connect 112 0 111 0;
#X connect 113 0 118 0;
#X connect 114 0 117 0;
#X connect 114 1 116 0;
#X connect 115 0 114 0;
#X connect 116 0 113 0;
#X connect 117 0 113 0;
#X connect 118 0 112 0;
#X connect 118 1 112 1;
#X connect 121 0 122 1;
#X connect 122 0 136 0;
#X connect 123 0 122 0;
#X connect 124 0 125 1;
#X connect 125 0 123 0;
#X connect 125 0 133 0;
#X connect 126 0 125 0;
#X connect 127 0 128 1;
#X connect 128 0 126 0;
#X connect 128 0 134 0;
#X connect 129 0 128 0;
#X connect 130 0 131 1;
#X connect 131 0 129 0;
#X connect 131 0 135 0;
#X connect 132 0 131 0;
#X connect 141 0 140 1;
#X connect 142 0 140 0;
#X connect 144 0 143 1;
#X connect 145 0 143 0;
#X connect 146 0 142 0;
#X connect 147 0 145 0;
#X connect 148 1 239 0;
#X connect 149 0 148 0;
#X connect 150 0 152 0;
#X connect 151 0 148 2;
#X connect 152 0 151 0;
#X connect 153 0 158 0;
#X connect 154 0 157 0;
#X connect 154 1 156 0;
#X connect 155 0 154 0;
#X connect 156 0 153 0;
#X connect 157 0 153 0;
#X connect 158 0 152 0;
#X connect 158 1 152 1;
#X connect 159 1 240 0;
#X connect 160 0 159 0;
#X connect 161 0 163 0;
#X connect 162 0 159 2;
#X connect 163 0 162 0;
#X connect 164 0 169 0;
#X connect 165 0 168 0;
#X connect 165 1 167 0;
#X connect 166 0 165 0;
#X connect 167 0 164 0;
#X connect 168 0 164 0;
#X connect 169 0 163 0;
#X connect 169 1 163 1;
#X connect 170 1 241 0;
#X connect 171 0 170 0;
#X connect 172 0 174 0;
#X connect 173 0 170 2;
#X connect 174 0 173 0;
#X connect 175 0 180 0;
#X connect 176 0 179 0;
#X connect 176 1 178 0;
#X connect 177 0 176 0;
#X connect 178 0 175 0;
#X connect 179 0 175 0;
#X connect 180 0 174 0;
#X connect 180 1 174 1;
#X connect 181 1 242 0;
#X connect 182 0 181 0;
#X connect 183 0 185 0;
#X connect 184 0 181 2;
#X connect 185 0 184 0;
#X connect 186 0 191 0;
#X connect 187 0 190 0;
#X connect 187 1 189 0;
#X connect 188 0 187 0;
#X connect 189 0 186 0;
#X connect 190 0 186 0;
#X connect 191 0 185 0;
#X connect 191 1 185 1;
#X connect 192 1 246 0;
#X connect 193 0 192 0;
#X connect 194 0 196 0;
#X connect 195 0 192 2;
#X connect 196 0 195 0;
#X connect 197 0 202 0;
#X connect 198 0 201 0;
#X connect 198 1 200 0;
#X connect 199 0 198 0;
#X connect 200 0 197 0;
#X connect 201 0 197 0;
#X connect 202 0 196 0;
#X connect 202 1 196 1;
#X connect 203 1 245 0;
#X connect 204 0 203 0;
#X connect 205 0 207 0;
#X connect 206 0 203 2;
#X connect 207 0 206 0;
#X connect 208 0 213 0;
#X connect 209 0 212 0;
#X connect 209 1 211 0;
#X connect 210 0 209 0;
#X connect 211 0 208 0;
#X connect 212 0 208 0;
#X connect 213 0 207 0;
#X connect 213 1 207 1;
#X connect 214 1 244 0;
#X connect 215 0 214 0;
#X connect 216 0 218 0;
#X connect 217 0 214 2;
#X connect 218 0 217 0;
#X connect 219 0 224 0;
#X connect 220 0 223 0;
#X connect 220 1 222 0;
#X connect 221 0 220 0;
#X connect 222 0 219 0;
#X connect 223 0 219 0;
#X connect 224 0 218 0;
#X connect 224 1 218 1;
#X connect 225 1 243 0;
#X connect 226 0 225 0;
#X connect 227 0 229 0;
#X connect 228 0 225 2;
#X connect 229 0 228 0;
#X connect 230 0 235 0;
#X connect 231 0 234 0;
#X connect 231 1 233 0;
#X connect 232 0 231 0;
#X connect 233 0 230 0;
#X connect 234 0 230 0;
#X connect 235 0 229 0;
#X connect 235 1 229 1;
#X connect 247 0 248 1;
#X connect 248 0 288 0;
#X connect 249 0 248 0;
#X connect 250 0 251 1;
#X connect 251 0 249 0;
#X connect 251 0 275 0;
#X connect 252 0 251 0;
#X connect 253 0 254 1;
#X connect 254 0 252 0;
#X connect 254 0 276 0;
#X connect 255 0 254 0;
#X connect 256 0 257 1;
#X connect 257 0 255 0;
#X connect 257 0 277 0;
#X connect 258 0 257 0;
#X connect 259 0 260 1;
#X connect 260 0 274 0;
#X connect 260 0 289 0;
#X connect 261 0 260 0;
#X connect 262 0 263 1;
#X connect 263 0 261 0;
#X connect 263 0 271 0;
#X connect 264 0 263 0;
#X connect 265 0 266 1;
#X connect 266 0 264 0;
#X connect 266 0 272 0;
#X connect 267 0 266 0;
#X connect 268 0 269 1;
#X connect 269 0 267 0;
#X connect 269 0 273 0;
#X connect 270 0 269 0;
#X connect 278 0 249 0;
#X connect 278 0 247 0;
#X connect 279 0 252 0;
#X connect 279 0 250 0;
#X connect 280 0 255 0;
#X connect 280 0 253 0;
#X connect 281 0 258 0;
#X connect 281 0 256 0;
#X connect 282 0 261 0;
#X connect 282 0 259 0;
#X connect 283 0 264 0;
#X connect 283 0 262 0;
#X connect 284 0 267 0;
#X connect 284 0 265 0;
#X connect 285 0 270 0;
#X connect 285 0 268 0;
#X connect 286 0 10 0;
#X connect 287 0 7 0;
#X connect 290 0 286 0;
#X connect 291 0 146 0;
#X connect 292 0 287 0;
#X connect 293 0 147 0;
#X connect 295 0 123 0;
#X connect 295 0 121 0;
#X connect 296 0 126 0;
#X connect 296 0 124 0;
#X connect 297 0 129 0;
#X connect 297 0 127 0;
#X connect 298 0 132 0;
#X connect 298 0 130 0;
#X connect 299 0 300 1;
#X connect 300 0 315 0;
#X connect 301 0 300 0;
#X connect 302 0 303 1;
#X connect 303 0 301 0;
#X connect 304 0 303 0;
#X connect 305 0 306 1;
#X connect 306 0 304 0;
#X connect 307 0 306 0;
#X connect 308 0 309 1;
#X connect 309 0 307 0;
#X connect 310 0 309 0;
#X connect 311 0 301 0;
#X connect 311 0 299 0;
#X connect 312 0 304 0;
#X connect 312 0 302 0;
#X connect 313 0 307 0;
#X connect 313 0 305 0;
#X connect 314 0 310 0;
#X connect 314 0 308 0;
#X connect 317 0 316 1;
#X connect 318 0 316 0;
#X connect 319 0 318 0;
#X connect 320 0 319 0;
#X connect 321 0 322 1;
#X connect 322 0 337 0;
#X connect 323 0 322 0;
#X connect 324 0 325 1;
#X connect 325 0 323 0;
#X connect 326 0 325 0;
#X connect 327 0 328 1;
#X connect 328 0 326 0;
#X connect 329 0 328 0;
#X connect 330 0 331 1;
#X connect 331 0 329 0;
#X connect 332 0 331 0;
#X connect 333 0 323 0;
#X connect 333 0 321 0;
#X connect 334 0 326 0;
#X connect 334 0 324 0;
#X connect 335 0 329 0;
#X connect 335 0 327 0;
#X connect 336 0 332 0;
#X connect 336 0 330 0;
#X connect 339 0 338 1;
#X connect 340 0 338 0;
#X connect 341 0 340 0;
#X connect 341 0 392 0;
#X connect 342 0 338 2;
#X connect 343 0 341 0;
#X connect 344 0 345 1;
#X connect 345 0 356 0;
#X connect 346 0 345 0;
#X connect 347 0 348 1;
#X connect 348 0 346 0;
#X connect 349 0 348 0;
#X connect 350 0 351 1;
#X connect 351 0 349 0;
#X connect 352 0 351 0;
#X connect 353 0 354 1;
#X connect 354 0 352 0;
#X connect 355 0 354 0;
#X connect 357 0 358 1;
#X connect 358 0 369 0;
#X connect 359 0 358 0;
#X connect 360 0 361 1;
#X connect 361 0 359 0;
#X connect 362 0 361 0;
#X connect 363 0 364 1;
#X connect 364 0 362 0;
#X connect 365 0 364 0;
#X connect 366 0 367 1;
#X connect 367 0 365 0;
#X connect 368 0 367 0;
#X connect 370 0 346 0;
#X connect 370 0 344 0;
#X connect 371 0 349 0;
#X connect 371 0 347 0;
#X connect 372 0 352 0;
#X connect 372 0 350 0;
#X connect 373 0 355 0;
#X connect 373 0 353 0;
#X connect 374 0 368 0;
#X connect 374 0 366 0;
#X connect 375 0 365 0;
#X connect 375 0 363 0;
#X connect 376 0 362 0;
#X connect 376 0 360 0;
#X connect 377 0 359 0;
#X connect 377 0 357 0;
#X connect 379 0 378 1;
#X connect 380 0 378 0;
#X connect 381 0 380 0;
#X connect 381 0 393 0;
#X connect 382 0 381 0;
#X connect 384 0 383 1;
#X connect 385 0 383 0;
#X connect 386 0 385 0;
#X connect 386 0 394 0;
#X connect 387 0 386 0;
#X connect 388 0 378 2;
#X connect 389 0 383 2;
#X connect 390 0 3 0;
#X connect 390 0 398 0;
#X connect 391 0 316 2;
#X connect 395 0 140 2;
#X connect 396 0 143 2;
#X connect 397 0 8 2;
