#N canvas 0 64 1366 679 12;
#X obj 330 100 notein;
#X floatatom 330 218 5 0 0 0 - - -, f 5;
#X obj 340 300 noteout 1;
#X obj 130 160 counter 127;
#X obj 130 70 tgl 15 0 empty empty empty 17 7 0 10 #fcfcfc #000000
#000000 0 1;
#X obj 130 110 metro 1;
#X obj 130 220 noteout 1;
#X obj 440 280 pack;
#X obj 440 310 print;
#X msg 440 220 127;
#X msg 390 220 0;
#X msg 237 159 0;
#X obj 390 160 moses 0.5;
#X obj 550 100 ctlin;
#X floatatom 530 150 5 0 0 0 - - -, f 5;
#X floatatom 580 150 5 0 0 0 - - -, f 5;
#X floatatom 630 150 5 0 0 0 - - -, f 5;
#X obj 600 210 bng 15 250 50 0 empty empty empty 17 7 0 10 #fcfcfc
#000000 #000000;
#X connect 0 0 1 0;
#X connect 0 1 12 0;
#X connect 1 0 2 0;
#X connect 1 0 7 0;
#X connect 1 0 10 0;
#X connect 3 0 6 0;
#X connect 4 0 5 0;
#X connect 5 0 11 0;
#X connect 5 0 3 0;
#X connect 7 0 8 0;
#X connect 9 0 2 1;
#X connect 9 0 7 1;
#X connect 10 0 2 1;
#X connect 10 0 7 1;
#X connect 11 0 6 1;
#X connect 12 0 10 0;
#X connect 12 1 9 0;
#X connect 13 0 14 0;
#X connect 13 1 15 0;
#X connect 13 2 16 0;
#X connect 15 0 17 0;
