#N canvas 0 64 1366 679 12;
#X obj 393 280 tgl 16 0 empty empty empty 17 7 0 10 #fcfcfc #000000
#000000 1 1;
#X obj 414 280 tgl 16 0 empty empty empty 17 7 0 10 #fcfcfc #000000
#000000 0 1;
#X obj 435 280 tgl 16 0 empty empty empty 17 7 0 10 #fcfcfc #000000
#000000 1 1;
#X obj 456 280 tgl 16 0 empty empty empty 17 7 0 10 #fcfcfc #000000
#000000 0 1;
#X obj 477 280 tgl 16 0 empty empty empty 17 7 0 10 #fcfcfc #000000
#000000 0 1;
#X obj 498 280 tgl 16 0 empty empty empty 17 7 0 10 #fcfcfc #000000
#000000 0 1;
#X obj 519 280 tgl 16 0 empty empty empty 17 7 0 10 #fcfcfc #000000
#000000 0 1;
#X obj 540 280 tgl 16 0 empty empty empty 17 7 0 10 #fcfcfc #000000
#000000 0 1;
#X obj 440 80 tgl 15 0 empty empty empty 17 7 0 10 #fcfcfc #000000
#000000 0 1;
#X obj 440 46 inlet;
#X text 441 19 trigger number send;
#X floatatom 440 169 5 0 0 0 - - -, f 5;
#X obj 440 140 counter 145;
#X obj 305 363 select 0;
#X obj 305 417 spigot;
#X obj 370 417 spigot;
#X obj 434 417 spigot;
#X obj 499 417 spigot;
#X obj 563 417 spigot;
#X obj 628 417 spigot;
#X obj 692 417 spigot;
#X obj 757 417 spigot;
#X obj 370 363 select 1;
#X obj 434 363 select 2;
#X obj 499 363 select 3;
#X obj 563 363 select 4;
#X obj 628 363 select 5;
#X obj 692 363 select 6;
#X obj 757 363 select 7;
#X obj 440 200 s \$0-roll-call;
#X obj 305 306 r \$0-roll-call, f 7;
#X obj 370 306 r \$0-roll-call, f 7;
#X obj 434 306 r \$0-roll-call, f 7;
#X obj 499 306 r \$0-roll-call, f 7;
#X obj 563 306 r \$0-roll-call, f 7;
#X obj 628 306 r \$0-roll-call, f 7;
#X obj 692 306 r \$0-roll-call, f 7;
#X obj 757 306 r \$0-roll-call, f 7;
#X obj 440 110 metro 1;
#X obj 305 444 s \$0-present, f 8;
#X obj 370 444 s \$0-present, f 8;
#X obj 434 444 s \$0-present, f 8;
#X obj 499 444 s \$0-present, f 8;
#X obj 563 444 s \$0-present, f 8;
#X obj 628 444 s \$0-present, f 8;
#X obj 692 444 s \$0-present, f 8;
#X obj 757 444 s \$0-present, f 8;
#X obj 980 310 r \$0-present, f 8;
#X floatatom 980 380 5 0 0 0 - - -, f 5;
#X msg 510 80 50;
#X msg 550 80 1;
#X msg 305 389 0;
#X msg 370 390 1;
#X msg 499 391 1;
#X msg 563 390 0;
#X msg 628 391 1;
#X msg 692 391 0;
#X msg 757 392 1;
#X msg 434 390 2;
#X obj 980 410 select 0 1 2;
#X obj 980 460 bng 15 250 50 0 empty empty empty 17 7 0 10 #fcfcfc
#000000 #000000;
#X obj 1010 460 bng 15 250 50 0 empty empty empty 17 7 0 10 #fcfcfc
#000000 #000000;
#X obj 1040 460 bng 15 250 50 0 empty empty empty 17 7 0 10 #fcfcfc
#000000 #000000;
#X msg 400 100 0;
#X obj 230 440 bng 15 250 50 0 empty empty empty 17 7 0 10 #fcfcfc
#000000 #000000;
#X connect 0 0 14 1;
#X connect 1 0 15 1;
#X connect 2 0 16 1;
#X connect 3 0 17 1;
#X connect 4 0 18 1;
#X connect 5 0 19 1;
#X connect 6 0 20 1;
#X connect 7 0 21 1;
#X connect 8 0 38 0;
#X connect 9 0 8 0;
#X connect 11 0 29 0;
#X connect 12 0 11 0;
#X connect 12 1 8 0;
#X connect 13 0 51 0;
#X connect 14 0 39 0;
#X connect 14 0 64 0;
#X connect 15 0 40 0;
#X connect 16 0 41 0;
#X connect 17 0 42 0;
#X connect 18 0 43 0;
#X connect 19 0 44 0;
#X connect 20 0 45 0;
#X connect 21 0 46 0;
#X connect 22 0 52 0;
#X connect 23 0 58 0;
#X connect 24 0 53 0;
#X connect 25 0 54 0;
#X connect 26 0 55 0;
#X connect 27 0 56 0;
#X connect 28 0 57 0;
#X connect 30 0 13 0;
#X connect 31 0 22 0;
#X connect 32 0 23 0;
#X connect 33 0 24 0;
#X connect 34 0 25 0;
#X connect 35 0 26 0;
#X connect 36 0 27 0;
#X connect 37 0 28 0;
#X connect 38 0 12 0;
#X connect 47 0 48 0;
#X connect 48 0 59 0;
#X connect 49 0 38 1;
#X connect 50 0 38 1;
#X connect 51 0 14 0;
#X connect 52 0 15 0;
#X connect 53 0 17 0;
#X connect 54 0 18 0;
#X connect 55 0 19 0;
#X connect 56 0 20 0;
#X connect 57 0 21 0;
#X connect 58 0 16 0;
#X connect 59 0 60 0;
#X connect 59 1 61 0;
#X connect 59 2 62 0;
#X connect 63 0 12 0;
