#N canvas -8 -8 1920 997 12;
#X obj 59 42 keyboard;
#X obj 112 290 noteout;
#X obj 112 239 unpack 0 0;
#X obj 41 265 midiout;
#X obj 334 268 sysexin;
#X obj 336 303 print;
#X obj 406 302 print;
#X obj 404 267 midiin;
#X floatatom 481 303 0 0 0 0 - - -;
#X obj 481 274 midirealtimein;
#X obj 214 228 notein;
#X obj 309 694 vsl 15 128 0 127 0 0 empty empty empty 0 -9 0 10 -262144
-1 -1 5300 1;
#X floatatom 309 831 5 0 0 0 - - -;
#X obj 133 400 metro 100;
#X obj 133 354 tgl 15 0 empty empty empty 17 7 0 10 -262144 -1 -1 1
1;
#X obj 291 652 bng 15 250 50 0 empty empty empty 17 7 0 10 -262144
-1 -1;
#X obj 321 652 bng 15 250 50 0 empty empty empty 17 7 0 10 -262144
-1 -1;
#X obj 351 652 bng 15 250 50 0 empty empty empty 17 7 0 10 -262144
-1 -1;
#X obj 381 652 bng 15 250 50 0 empty empty empty 17 7 0 10 -262144
-1 -1;
#X obj 411 652 bng 15 250 50 0 empty empty empty 17 7 0 10 -262144
-1 -1;
#X obj 441 652 bng 15 250 50 0 empty empty empty 17 7 0 10 -262144
-1 -1;
#X obj 471 652 bng 15 250 50 0 empty empty empty 17 7 0 10 -262144
-1 -1;
#X obj 501 652 bng 15 250 50 0 empty empty empty 17 7 0 10 -262144
-1 -1;
#X obj 292 586 counter 8;
#X obj 294 982 noteout;
#X msg 493 959 122;
#X obj 292 617 select 0 1 2 3 4 5 6 7;
#X obj 291 856 int;
#X obj 359 693 vsl 15 128 0 127 0 0 empty empty empty 0 -9 0 10 -262144
-1 -1 6500 1;
#X floatatom 359 831 5 0 0 0 - - -;
#X obj 341 856 int;
#X obj 409 694 vsl 15 128 0 127 0 0 empty empty empty 0 -9 0 10 -262144
-1 -1 2600 1;
#X floatatom 409 832 5 0 0 0 - - -;
#X obj 391 857 int;
#X obj 460 694 vsl 15 128 0 127 0 0 empty empty empty 0 -9 0 10 -262144
-1 -1 4600 1;
#X floatatom 460 832 5 0 0 0 - - -;
#X obj 442 857 int;
#X obj 509 694 vsl 15 128 0 127 0 0 empty empty empty 0 -9 0 10 -262144
-1 -1 5100 1;
#X floatatom 509 832 5 0 0 0 - - -;
#X obj 491 857 int;
#X obj 555 694 vsl 15 128 0 127 0 0 empty empty empty 0 -9 0 10 -262144
-1 -1 3300 1;
#X floatatom 555 832 5 0 0 0 - - -;
#X obj 537 857 int;
#X obj 604 694 vsl 15 128 0 127 0 0 empty empty empty 0 -9 0 10 -262144
-1 -1 2700 1;
#X floatatom 604 832 5 0 0 0 - - -;
#X obj 586 857 int;
#X obj 651 694 vsl 15 128 0 127 0 0 empty empty empty 0 -9 0 10 -262144
-1 -1 5000 1;
#X floatatom 651 832 5 0 0 0 - - -;
#X obj 633 857 int;
#X floatatom 193 350 5 0 0 0 - - -;
#X obj 292 484 select 3;
#X obj 434 567 spigot;
#X obj 499 536 tgl 15 0 empty empty empty 17 7 0 10 -262144 -1 -1 1
1;
#X obj 438 363 hradio 15 1 0 8 empty empty empty 0 -8 0 10 -262144
-1 -1 4;
#X obj 438 465 - 1;
#X obj 292 455 counter;
#X floatatom 338 427 2 0 0 0 - - -;
#X obj 134 447 s metro;
#X obj 493 928 r metro;
#X obj 434 535 r metro;
#X text 434 514 Note Repeat;
#X text 285 360 Trigger Spacing;
#X obj 732 704 vradio 15 1 0 8 empty empty empty 0 -8 0 10 -262144
-1 -1 3;
#X obj 732 841 s space;
#X obj 438 333 r space;
#X obj 792 704 vradio 15 1 0 8 empty empty empty 0 -8 0 10 -262144
-1 -1 5;
#X obj 792 841 s space;
#X obj 852 704 vradio 15 1 0 8 empty empty empty 0 -8 0 10 -262144
-1 -1 5;
#X obj 852 841 s space;
#X obj 912 704 vradio 15 1 0 8 empty empty empty 0 -8 0 10 -262144
-1 -1 5;
#X obj 912 841 s space;
#X obj 438 392 + 1;
#X obj 972 704 vradio 15 1 0 8 empty empty empty 0 -8 0 10 -262144
-1 -1 3;
#X obj 972 841 s space;
#X obj 1032 704 vradio 15 1 0 8 empty empty empty 0 -8 0 10 -262144
-1 -1 4;
#X obj 1032 841 s space;
#X obj 1092 704 vradio 15 1 0 8 empty empty empty 0 -8 0 10 -262144
-1 -1 5;
#X obj 1092 841 s space;
#X obj 1152 704 vradio 15 1 0 8 empty empty empty 0 -8 0 10 -262144
-1 -1 5;
#X obj 1152 841 s space;
#X obj 1268 756 spigot;
#X obj 1307 723 tgl 15 0 empty empty empty 17 7 0 10 -262144 -1 -1
1 1;
#X obj 1268 783 s repeat;
#X obj 499 484 r repeat;
#X obj 679 485 bng 15 250 50 0 empty empty empty 17 7 0 10 -262144
-1 -1;
#X obj 1332 755 spigot;
#X obj 1371 722 tgl 15 0 empty empty empty 17 7 0 10 -262144 -1 -1
0 1;
#X obj 1332 782 s repeat;
#X obj 1396 755 spigot;
#X obj 1435 722 tgl 15 0 empty empty empty 17 7 0 10 -262144 -1 -1
1 1;
#X obj 1396 782 s repeat;
#X obj 1460 754 spigot;
#X obj 1499 721 tgl 15 0 empty empty empty 17 7 0 10 -262144 -1 -1
0 1;
#X obj 1460 781 s repeat;
#X obj 244 828 del 1;
#X obj 678 517 spigot;
#X obj 717 484 tgl 15 0 empty empty empty 17 7 0 10 -262144 -1 -1 1
1;
#X obj 556 517 bng 15 250 50 0 empty empty empty 17 7 0 10 -262144
-1 -1;
#X obj 1264 673 bng 15 250 50 0 empty empty empty 17 7 0 10 -262144
-1 -1;
#X obj 1294 673 bng 15 250 50 0 empty empty empty 17 7 0 10 -262144
-1 -1;
#X obj 1324 673 bng 15 250 50 0 empty empty empty 17 7 0 10 -262144
-1 -1;
#X obj 1354 673 bng 15 250 50 0 empty empty empty 17 7 0 10 -262144
-1 -1;
#X obj 1384 673 bng 15 250 50 0 empty empty empty 17 7 0 10 -262144
-1 -1;
#X obj 1414 673 bng 15 250 50 0 empty empty empty 17 7 0 10 -262144
-1 -1;
#X obj 1444 673 bng 15 250 50 0 empty empty empty 17 7 0 10 -262144
-1 -1;
#X obj 1474 673 bng 15 250 50 0 empty empty empty 17 7 0 10 -262144
-1 -1;
#X obj 1265 638 select 0 1 2 3 4 5 6 7;
#X obj 1524 754 spigot;
#X obj 1563 721 tgl 15 0 empty empty empty 17 7 0 10 -262144 -1 -1
0 1;
#X obj 1524 781 s repeat;
#X obj 1588 753 spigot;
#X obj 1627 720 tgl 15 0 empty empty empty 17 7 0 10 -262144 -1 -1
0 1;
#X obj 1588 780 s repeat;
#X obj 1652 753 spigot;
#X obj 1691 720 tgl 15 0 empty empty empty 17 7 0 10 -262144 -1 -1
0 1;
#X obj 1652 780 s repeat;
#X obj 1716 752 spigot;
#X obj 1755 719 tgl 15 0 empty empty empty 17 7 0 10 -262144 -1 -1
0 1;
#X obj 1716 779 s repeat;
#X connect 0 0 3 0;
#X connect 0 0 2 0;
#X connect 2 0 1 0;
#X connect 2 1 1 1;
#X connect 4 0 5 0;
#X connect 7 0 6 0;
#X connect 9 0 8 0;
#X connect 10 0 1 0;
#X connect 10 1 1 1;
#X connect 11 0 12 0;
#X connect 12 0 27 1;
#X connect 13 0 55 0;
#X connect 13 0 57 0;
#X connect 14 0 13 0;
#X connect 15 0 94 0;
#X connect 16 0 30 0;
#X connect 16 0 65 0;
#X connect 17 0 33 0;
#X connect 17 0 67 0;
#X connect 18 0 36 0;
#X connect 18 0 69 0;
#X connect 19 0 39 0;
#X connect 19 0 72 0;
#X connect 20 0 42 0;
#X connect 20 0 74 0;
#X connect 21 0 45 0;
#X connect 21 0 76 0;
#X connect 22 0 48 0;
#X connect 22 0 78 0;
#X connect 23 0 26 0;
#X connect 23 0 106 0;
#X connect 23 1 26 0;
#X connect 25 0 24 1;
#X connect 26 0 15 0;
#X connect 26 1 16 0;
#X connect 26 2 17 0;
#X connect 26 3 18 0;
#X connect 26 4 19 0;
#X connect 26 5 20 0;
#X connect 26 6 21 0;
#X connect 26 7 22 0;
#X connect 27 0 24 0;
#X connect 28 0 29 0;
#X connect 29 0 30 1;
#X connect 30 0 24 0;
#X connect 31 0 32 0;
#X connect 32 0 33 1;
#X connect 33 0 24 0;
#X connect 34 0 35 0;
#X connect 35 0 36 1;
#X connect 36 0 24 0;
#X connect 37 0 38 0;
#X connect 38 0 39 1;
#X connect 39 0 24 0;
#X connect 40 0 41 0;
#X connect 41 0 42 1;
#X connect 42 0 24 0;
#X connect 43 0 44 0;
#X connect 44 0 45 1;
#X connect 45 0 24 0;
#X connect 46 0 47 0;
#X connect 47 0 48 1;
#X connect 48 0 24 0;
#X connect 49 0 13 1;
#X connect 50 0 23 0;
#X connect 51 0 23 2;
#X connect 52 0 51 1;
#X connect 53 0 71 0;
#X connect 54 0 50 1;
#X connect 55 0 50 0;
#X connect 56 0 55 1;
#X connect 58 0 25 0;
#X connect 59 0 51 0;
#X connect 62 0 63 0;
#X connect 64 0 53 0;
#X connect 65 0 66 0;
#X connect 67 0 68 0;
#X connect 69 0 70 0;
#X connect 71 0 56 0;
#X connect 71 0 54 0;
#X connect 72 0 73 0;
#X connect 74 0 75 0;
#X connect 76 0 77 0;
#X connect 78 0 79 0;
#X connect 80 0 82 0;
#X connect 81 0 80 1;
#X connect 83 0 52 0;
#X connect 83 0 97 0;
#X connect 84 0 95 0;
#X connect 85 0 87 0;
#X connect 86 0 85 1;
#X connect 88 0 90 0;
#X connect 89 0 88 1;
#X connect 91 0 93 0;
#X connect 92 0 91 1;
#X connect 94 0 27 0;
#X connect 95 0 52 0;
#X connect 96 0 95 1;
#X connect 98 0 80 0;
#X connect 99 0 85 0;
#X connect 100 0 88 0;
#X connect 101 0 91 0;
#X connect 102 0 107 0;
#X connect 103 0 110 0;
#X connect 104 0 113 0;
#X connect 105 0 116 0;
#X connect 106 0 98 0;
#X connect 106 1 99 0;
#X connect 106 2 100 0;
#X connect 106 3 101 0;
#X connect 106 4 102 0;
#X connect 106 5 103 0;
#X connect 106 6 104 0;
#X connect 106 7 105 0;
#X connect 107 0 109 0;
#X connect 108 0 107 1;
#X connect 110 0 112 0;
#X connect 111 0 110 1;
#X connect 113 0 115 0;
#X connect 114 0 113 1;
#X connect 116 0 118 0;
#X connect 117 0 116 1;
#X coords 0 997 1 996 85 60 0;
