#N canvas 752 211 447 371 10;
#X msg 147 51 bang;
#X msg 181 51 bang;
#X msg 161 18 bang;
#X obj 146 84 t b b;
#X msg 173 144 0;
#X obj 239 187 t b f;
#X msg 146 144 1;
#X obj 157 226 &&;
#X obj 239 88 t b b;
#X msg 266 148 0;
#X msg 239 148 1;
#X obj 157 268 sel 1;
#X obj 157 291 print bang;
#X obj 172 123 delay 10;
#X obj 266 127 delay 10;
#X obj 157 247 change;
#X text 20 40 this circuit;
#X text 20 60 compares bangs;
#X text 20 80 if they are within;
#X text 20 100 10 ms of each;
#X text 20 120 other;
#X text 20 140 otherwise they;
#X text 20 160 will never happen;
#X text 20 180 close enough;
#X text 20 200 to be compared;
#X connect 0 0 3 0;
#X connect 1 0 8 0;
#X connect 2 0 1 0;
#X connect 2 0 0 0;
#X connect 3 0 6 0;
#X connect 3 1 13 0;
#X connect 4 0 7 0;
#X connect 5 0 7 0;
#X connect 5 1 7 1;
#X connect 6 0 7 0;
#X connect 7 0 15 0;
#X connect 8 0 10 0;
#X connect 8 1 14 0;
#X connect 9 0 5 0;
#X connect 10 0 5 0;
#X connect 11 0 12 0;
#X connect 13 0 4 0;
#X connect 14 0 9 0;
#X connect 15 0 11 0;
