#N canvas 1201 236 450 300 12;
#X obj 131 177 int;
#X obj 79 210 moses;
#X obj 79 268 bng 15 250 50 0 empty empty empty 17 7 0 10 -262144 -1
-1;
#X obj 111 268 bng 15 250 50 0 empty empty empty 17 7 0 10 -262144
-1 -1;
#X obj 131 150 int;
#X floatatom 269 228 5 0 0 0 - - -;
#X obj 269 146 moses 0;
#X msg 221 174 0;
#X obj 42 168 select 0;
#X obj 269 263 outlet;
#X obj 81 67 pack;
#X obj 74 100 route \$1;
#X obj 32 15 inlet;
#X obj 136 14 inlet;
#X obj 213 263 outlet;
#X obj 147 264 outlet;
#X floatatom 354 229 5 0 0 0 - - -;
#X obj 354 260 outlet;
#X obj 271 41 updown;
#X connect 0 0 1 1;
#X connect 1 0 2 0;
#X connect 1 1 3 0;
#X connect 2 0 4 0;
#X connect 2 0 15 0;
#X connect 2 0 18 1;
#X connect 3 0 4 0;
#X connect 3 0 14 0;
#X connect 3 0 18 0;
#X connect 4 0 0 0;
#X connect 5 0 9 0;
#X connect 6 0 7 0;
#X connect 6 1 5 0;
#X connect 7 0 5 0;
#X connect 7 0 18 0;
#X connect 7 0 18 1;
#X connect 8 0 2 0;
#X connect 8 1 1 0;
#X connect 8 1 4 1;
#X connect 10 0 11 0;
#X connect 11 0 8 0;
#X connect 12 0 10 0;
#X connect 13 0 10 1;
#X connect 16 0 17 0;
#X connect 18 0 6 0;
#X connect 18 0 16 0;
