#N canvas 267 453 812 388 12;
#X obj 40 38 notein;
#X obj 39 137 bng 15 250 50 0 empty empty empty 17 7 0 10 -262144 -1
-1;
#X obj 76 137 bng 15 250 50 0 empty empty empty 17 7 0 10 -262144 -1
-1;
#X msg 55 162 0;
#X obj 54 219 s \$0-ctl;
#X obj 39 246 s \$0-val;
#X obj 129 137 bng 15 250 50 0 empty empty empty 17 7 0 10 -262144
-1 -1;
#X obj 166 137 bng 15 250 50 0 empty empty empty 17 7 0 10 -262144
-1 -1;
#X obj 144 219 s \$0-ctl;
#X obj 129 245 s \$0-val;
#X obj 217 137 bng 15 250 50 0 empty empty empty 17 7 0 10 -262144
-1 -1;
#X obj 254 137 bng 15 250 50 0 empty empty empty 17 7 0 10 -262144
-1 -1;
#X obj 232 219 s \$0-ctl;
#X obj 217 245 s \$0-val;
#X obj 307 137 bng 15 250 50 0 empty empty empty 17 7 0 10 -262144
-1 -1;
#X obj 344 137 bng 15 250 50 0 empty empty empty 17 7 0 10 -262144
-1 -1;
#X obj 322 219 s \$0-ctl;
#X obj 307 245 s \$0-val;
#X obj 394 137 bng 15 250 50 0 empty empty empty 17 7 0 10 -262144
-1 -1;
#X obj 431 137 bng 15 250 50 0 empty empty empty 17 7 0 10 -262144
-1 -1;
#X obj 409 219 s \$0-ctl;
#X obj 394 245 s \$0-val;
#X obj 484 137 bng 15 250 50 0 empty empty empty 17 7 0 10 -262144
-1 -1;
#X obj 521 137 bng 15 250 50 0 empty empty empty 17 7 0 10 -262144
-1 -1;
#X obj 499 219 s \$0-ctl;
#X obj 484 245 s \$0-val;
#X obj 572 137 bng 15 250 50 0 empty empty empty 17 7 0 10 -262144
-1 -1;
#X obj 609 137 bng 15 250 50 0 empty empty empty 17 7 0 10 -262144
-1 -1;
#X obj 587 219 s \$0-ctl;
#X obj 572 245 s \$0-val;
#X obj 662 137 bng 15 250 50 0 empty empty empty 17 7 0 10 -262144
-1 -1;
#X obj 699 137 bng 15 250 50 0 empty empty empty 17 7 0 10 -262144
-1 -1;
#X obj 677 219 s \$0-ctl;
#X obj 662 245 s \$0-val;
#X obj 121 282 r \$0-ctl;
#X obj 194 282 r \$0-val;
#X obj 121 317 pack;
#X obj 121 346 outlet;
#X obj 39 189 updown;
#X obj 129 189 updown;
#X obj 217 187 updown;
#X obj 307 187 updown;
#X obj 394 189 updown;
#X obj 484 188 updown;
#X obj 572 186 updown;
#X obj 662 186 updown;
#X msg 145 162 1;
#X msg 233 160 2;
#X msg 323 162 3;
#X msg 410 162 4;
#X msg 500 162 5;
#X msg 588 161 6;
#X msg 678 162 7;
#X obj 249 52 route 127;
#X obj 251 23 pack;
#X obj 39 108 select 16 0;
#X obj 129 108 select 17 1;
#X obj 217 108 select 18 2;
#X obj 307 108 select 19 3;
#X obj 394 108 select 20 4;
#X obj 484 108 select 21 5;
#X obj 572 108 select 22 6;
#X obj 662 108 select 23 7;
#X connect 0 0 54 1;
#X connect 0 1 54 0;
#X connect 1 0 3 0;
#X connect 1 0 38 0;
#X connect 2 0 3 0;
#X connect 2 0 38 1;
#X connect 3 0 4 0;
#X connect 6 0 46 0;
#X connect 6 0 39 0;
#X connect 7 0 46 0;
#X connect 7 0 39 1;
#X connect 10 0 40 0;
#X connect 10 0 47 0;
#X connect 11 0 40 1;
#X connect 11 0 47 0;
#X connect 14 0 48 0;
#X connect 14 0 41 0;
#X connect 15 0 48 0;
#X connect 15 0 41 1;
#X connect 18 0 49 0;
#X connect 18 0 42 0;
#X connect 19 0 49 0;
#X connect 19 0 42 1;
#X connect 22 0 50 0;
#X connect 22 0 43 0;
#X connect 23 0 50 0;
#X connect 23 0 43 1;
#X connect 26 0 51 0;
#X connect 26 0 44 0;
#X connect 27 0 51 0;
#X connect 27 0 44 1;
#X connect 30 0 52 0;
#X connect 30 0 45 0;
#X connect 31 0 52 0;
#X connect 31 0 45 1;
#X connect 34 0 36 0;
#X connect 35 0 36 1;
#X connect 36 0 37 0;
#X connect 38 0 5 0;
#X connect 39 0 9 0;
#X connect 40 0 13 0;
#X connect 41 0 17 0;
#X connect 42 0 21 0;
#X connect 43 0 25 0;
#X connect 44 0 29 0;
#X connect 45 0 33 0;
#X connect 46 0 8 0;
#X connect 47 0 12 0;
#X connect 48 0 16 0;
#X connect 49 0 20 0;
#X connect 50 0 24 0;
#X connect 51 0 28 0;
#X connect 52 0 32 0;
#X connect 53 0 55 0;
#X connect 53 0 56 0;
#X connect 53 0 57 0;
#X connect 53 0 58 0;
#X connect 53 0 59 0;
#X connect 53 0 60 0;
#X connect 53 0 61 0;
#X connect 53 0 62 0;
#X connect 54 0 53 0;
#X connect 55 0 1 0;
#X connect 55 1 2 0;
#X connect 56 0 6 0;
#X connect 56 1 7 0;
#X connect 57 0 10 0;
#X connect 57 1 11 0;
#X connect 58 0 14 0;
#X connect 58 1 15 0;
#X connect 59 0 18 0;
#X connect 59 1 19 0;
#X connect 60 0 22 0;
#X connect 60 1 23 0;
#X connect 61 0 26 0;
#X connect 61 1 27 0;
#X connect 62 0 30 0;
#X connect 62 1 31 0;
