#N canvas 246 202 450 300 12;
#X obj 32 69 convert-knob 0;
#X obj 35 20 ctlin;
#X obj 71 209 pack;
#X obj 143 70 convert-knob 1;
#X obj 31 101 convert-knob 2;
#X obj 142 102 convert-knob 3;
#X obj 29 135 convert-knob 4;
#X obj 140 136 convert-knob 5;
#X obj 28 167 convert-knob 6;
#X obj 139 168 convert-knob 7;
#X obj 71 244 outlet;
#X connect 0 3 2 1;
#X connect 1 0 0 1;
#X connect 1 0 3 1;
#X connect 1 0 4 1;
#X connect 1 0 5 1;
#X connect 1 0 6 1;
#X connect 1 0 7 1;
#X connect 1 0 8 1;
#X connect 1 0 9 1;
#X connect 1 1 0 0;
#X connect 1 1 3 0;
#X connect 1 1 4 0;
#X connect 1 1 5 0;
#X connect 1 1 6 0;
#X connect 1 1 7 0;
#X connect 1 1 8 0;
#X connect 1 1 9 0;
#X connect 1 1 2 0;
#X connect 2 0 10 0;
#X connect 3 3 2 1;
#X connect 4 3 2 1;
#X connect 5 3 2 1;
#X connect 6 3 2 1;
#X connect 7 3 2 1;
#X connect 8 3 2 1;
#X connect 9 3 2 1;
