#N canvas 437 138 450 300 12;
#X floatatom 69 69 5 0 0 0 - - -;
#X obj 69 42 infinite;
#X floatatom 140 70 5 0 0 0 - - -;
#X obj 140 43 infinite;
#X obj 89 98 t b f;
#X obj 89 125 -;
#X obj 68 11 inlet;
#X obj 145 14 inlet;
#X obj 92 149 outlet;
#X connect 0 0 5 0;
#X connect 1 0 0 0;
#X connect 2 0 4 0;
#X connect 3 0 2 0;
#X connect 4 0 5 0;
#X connect 4 1 5 1;
#X connect 5 0 8 0;
#X connect 6 0 1 0;
#X connect 7 0 3 0;
